<svg xmlns="http://www.w3.org/2000/svg" width="160" height="87" fill="none" viewBox="0 0 160 87"><g clip-path="url(#box__a)"><path fill="black" d="M158.58 76.7c2 2.8 1.6 6.39-.8 8.39-2.8 2-6.79 1.6-8.78-.8L135 66.3 121.43 83.9c-2 2.8-5.99 2.8-8.79.8s-3.2-5.6-1.2-8.4l15.99-20.76-15.98-20.78c-2-2.8-1.2-6.79 1.2-8.78 2.8-2 6.78-1.2 8.78 1.2l13.58 17.97L149 27.96c2-2.8 5.59-3.2 8.78-1.2 2.8 2 2.8 6 .8 8.8L143 55.91zm-72.7-2.4c-10.39 0-18.77-7.99-18.77-18.37 0-10 8.38-18.38 18.77-18.38s18.78 8.39 18.78 18.38A18.93 18.93 0 0 1 85.88 74.3m-55.13 0c-10.38 0-18.77-7.99-18.77-18.37 0-10 8.39-18.38 18.77-18.38 10.4 0 18.78 8.39 18.78 18.38 0 10.38-8.39 18.37-18.78 18.37m55.13-48.73a30.9 30.9 0 0 0-27.16 15.97c-5.2-9.58-15.58-15.97-27.57-15.97-7.19 0-13.58 2.4-18.77 5.99V5.99c0-3.2-2.8-5.99-6-5.99C2.8 0 0 2.8 0 6v50.32a30.6 30.6 0 0 0 30.75 29.96c11.99 0 22.37-6.79 27.57-16.37 5.2 9.58 15.58 16.37 27.16 16.37 17.18 0 31.16-13.58 31.16-30.75.4-16.38-13.58-29.96-30.76-29.96" style="fill:black;fill-opacity:1;"/></g><defs><clipPath id="box__a"><rect width="159.999" height="86.367" fill="white" style="fill:white;fill-opacity:1;"/></clipPath></defs></svg>