<svg xmlns="http://www.w3.org/2000/svg" width="280" height="58" fill="none" viewBox="0 0 280 58"><path fill="white" d="M208.03 11.79h-23.9a9.4 9.4 0 0 0-9.4 9.42v26.41c0 5.2 4.22 9.44 9.4 9.44h23.9c5.18 0 9.4-4.24 9.4-9.44v-26.4c0-5.2-4.22-9.43-9.4-9.43m1.73 35.83c0 .96-.79 1.74-1.73 1.74h-23.9a1.75 1.75 0 0 1-1.73-1.74v-26.6a1.74 1.74 0 0 1 1.73-1.75h23.9c.94 0 1.73.77 1.73 1.75zM165.52 47.63v-2.26h-7.66v2.26a1.75 1.75 0 0 1-1.74 1.73h-23.2c-.95 0-1.73-.78-1.73-1.73V21.02c0-.98.78-1.75 1.74-1.75h23.2a1.74 1.74 0 0 1 1.73 1.75v2.24h7.66V21.2c0-5.2-4.23-9.42-9.4-9.42h-23.2a9.4 9.4 0 0 0-9.38 9.42v26.42c0 5.19 4.2 9.42 9.39 9.42h23.2c5.16 0 9.4-4.23 9.4-9.42M112.79 13.55h-7.67v43.5h7.67zM9.4 57.05h23.2c5.18 0 9.4-4.23 9.4-9.43v-2.25h-7.66v2.26c0 .95-.79 1.73-1.75 1.73H9.4c-.95 0-1.72-.78-1.72-1.73V21c0-.97.77-1.74 1.73-1.74h23.2A1.74 1.74 0 0 1 34.33 21v2.25h7.65V21.2c0-5.2-4.2-9.43-9.4-9.43H9.4A9.43 9.43 0 0 0 0 21.21v26.42c0 5.19 4.22 9.42 9.4 9.42M232.7 6.38V4.64h-7.9v14.8h4.2s3.7-4.03 3.7-13.07M58.93 21.02a1.74 1.74 0 0 1 1.74-1.75h23.19c.97 0 1.74.77 1.74 1.75v36.04h7.67V21.2c0-5.2-4.22-9.42-9.41-9.42H65.22c-2.84 0-5.28 1.45-6.29 4.01V0h-7.66v57.06h7.66zM279.99 47.63V40c0-5.19-4.21-9.44-9.39-9.44h-23.2a1.74 1.74 0 0 1-1.73-1.73v-8.5c0-.97.63-1.56 1.73-1.56h23.2c.95 0 1.73.6 1.73 1.56v2.92H280V21.2c0-6-3.52-9.42-9.4-9.42h-23.2a9.4 9.4 0 0 0-9.38 9.42v7.63c0 5.2 4.22 9.42 9.38 9.42h23.2c.95 0 1.72.79 1.72 1.75v8.06c0 .96-.77 1.75-1.73 1.75h-23.2c-.97 0-1.74-.77-1.74-1.74v-3.26h-7.67v2.8c0 5.74 3.47 9.43 9.42 9.43h23.2c5.17 0 9.39-4.23 9.39-9.43" style="fill:white;fill-opacity:1;"/></svg>