<svg xmlns="http://www.w3.org/2000/svg" width="268" height="96" fill="none" viewBox="0 0 268 96"><g clip-path="url(#clip0_1773_63822)"><path fill="#fff" d="M0 12C0 5.373 5.373 0 12 0h244c6.627 0 12 5.373 12 12v176c0 6.627-5.373 12-12 12H12c-6.627 0-12-5.373-12-12z"/><rect width="243" height="155" x="12.5" y="32.5" stroke="#000" stroke-opacity=".08" rx="3.5"/><path fill="#A8A8A8" d="M227.771 62.046h-3.079v2.926h3.079zm4.071-8.603c0-2.536-2.127-4.328-5.199-4.438l-.301-.005c-2.97 0-5.214 2.09-5.5 4.972l2.86.131c.22-1.605 1.254-2.727 2.728-2.727l.29.01c1.416.098 2.304.923 2.284 2.057 0 1.298-.99 1.65-2.002 2.443-1.606 1.166-2.112 2.288-2.112 4.29h2.75c0-1.386.396-2.112 1.584-2.882 1.87-1.188 2.618-2.31 2.618-3.85m1 0c0 .95-.236 1.816-.78 2.619-.526.777-1.304 1.44-2.295 2.07h.001c-.521.339-.768.603-.905.852-.136.248-.223.59-.223 1.192v.87h.131v4.926h-5.079v-4.926h.198v-.87c0-1.08.135-2.03.553-2.895.422-.871 1.085-1.561 1.971-2.205.271-.21.542-.395.754-.543.234-.164.402-.287.532-.409.21-.196.304-.358.304-.68v-.018a.83.83 0 0 0-.316-.696c-.23-.187-.639-.354-1.258-.354-.84 0-1.565.607-1.738 1.863l-.124.906-4.825-.223.104-1.049c.336-3.387 3.005-5.873 6.495-5.873 1.798 0 3.409.508 4.591 1.462 1.196.966 1.909 2.359 1.909 3.981"/><path fill="#A8A8A8" d="M214.621 55.226c1.254 0 2.376.748 2.618 2.794h-5.456c.242-1.738 1.254-2.794 2.838-2.794m0 1c-.554 0-.94.177-1.215.452a1.8 1.8 0 0 0-.26.342h2.792a1.6 1.6 0 0 0-.316-.439c-.246-.233-.577-.355-1.001-.355m6.435 4.459.178.012-.379 1.208c-.852 2.716-3.372 4.33-6.234 4.33-1.968 0-3.674-.689-4.884-1.975-1.204-1.28-1.836-3.066-1.836-5.118s.632-3.838 1.836-5.119c1.21-1.286 2.916-1.975 4.884-1.975 1.702 0 3.314.576 4.509 1.811 1.193 1.234 1.878 3.026 1.926 5.284zm-12.155-1.543c0 3.695 2.266 6.093 5.72 6.093 2.486 0 4.576-1.386 5.28-3.63l-2.794-.198a2.69 2.69 0 0 1-2.486 1.63v-1c.687 0 1.291-.387 1.569-1.028l.052-.12h-3.27c.102.275.232.487.376.646.274.304.673.501 1.273.501v1l-.309-.014c-1.51-.135-2.427-1.276-2.55-3.132h8.294v-.726c-.086-4.007-2.339-5.99-5.16-6.11l-.275-.006c-3.454 0-5.72 2.398-5.72 6.094"/><path fill="#A8A8A8" d="M205.643 61.43v-5.985h3.08v-2.133h-3.08v-2.64h-2.728v2.64h-1.826v2.133h1.826v5.985l.004.215c.076 2.19 1.324 3.327 3.626 3.327h2.178v-2.157h-1.76v-1h2.409q.152.39.351.742v3.415h-3.178c-1.347 0-2.544-.344-3.403-1.18-.864-.84-1.227-2.023-1.227-3.362v-4.985h-1.826v-4.133h1.826v-2.64h4.728v2.64h3.08v3.414a6 6 0 0 0-.342.72h-2.738v4.984c0 .224.038.318.052.345.023.013.096.04.268.04v1q-1.237 0-1.315-1.217z"/><path fill="#A8A8A8" d="M192.604 61.825c.001-1.363 1.166-1.518 2.684-1.803l2.244-.396v.11c0 2.375-1.21 3.541-2.838 3.541v-1c.562 0 .98-.192 1.272-.53.175-.205.332-.5.437-.907l-.941.167-.001-.001c-.83.156-1.313.243-1.631.405-.125.064-.161.11-.174.131-.011.018-.051.088-.052.283 0 .1.029.165.12.234.118.089.404.218.97.218v1c-1.319 0-2.001-.56-2.082-1.3zm7.634.286v-4.069c0-3.154-1.651-4.884-4.795-4.99l-.308-.004c-2.816 0-4.687 1.408-5.149 3.805l2.794.155c.286-1.276 1.101-1.937 2.355-1.937l.287.011c1.387.1 2.046.96 2.066 2.63l-3.277.66-.5.102c-2.434.523-3.923 1.295-3.923 3.44l.006.191c.112 1.954 1.937 3.13 4.196 3.13 2.002 0 3.301-.901 3.851-2.045.154 1.559 1.52 1.77 2.493 1.8l.389.004.681-.022v-2.025h-.439l-.164-.009c-.36-.042-.563-.25-.563-.827m-5.103-6.04c-.448 0-.726.116-.906.264-.184.15-.366.415-.473.892l-.051.226 2.69-.542c-.066-.26-.156-.423-.246-.524-.136-.154-.4-.316-1.014-.316m6.103 5.876h1.166v3.993l-.967.03-.682.023-.017.001h-.015c-.451 0-1.314.004-2.096-.304a2.9 2.9 0 0 1-1.001-.648c-.888.74-2.128 1.193-3.636 1.193-1.333 0-2.609-.357-3.577-1.087-.99-.746-1.625-1.863-1.625-3.234 0-1.452.569-2.52 1.616-3.25a6 6 0 0 1 1.426-.708l-3.042-.167.217-1.125c.274-1.42.98-2.6 2.076-3.415 1.087-.807 2.482-1.201 4.054-1.201 1.835 0 3.401.478 4.506 1.561 1.108 1.087 1.597 2.63 1.597 4.433z"/><path fill="#A8A8A8" d="M183.673 55.234c1.157.09 2.157.868 2.384 2.785h-5.456c.242-1.737 1.254-2.793 2.838-2.793zm-.234.992c-.554 0-.94.177-1.215.452a1.8 1.8 0 0 0-.261.342h2.793a1.6 1.6 0 0 0-.317-.439c-.246-.233-.576-.355-1-.355m6.434 4.459.123.008q-.134.342-.182.758l-.141.454c-.852 2.716-3.372 4.33-6.234 4.33-1.967 0-3.673-.689-4.883-1.975-1.205-1.28-1.837-3.066-1.837-5.118 0-1.377.286-2.632.837-3.697h.25v-.441q.327-.529.75-.98c1.21-1.287 2.916-1.976 4.883-1.976 1.702 0 3.313.576 4.508 1.811s1.878 3.026 1.926 5.284zm-12.154-1.543c0 3.58 2.127 5.943 5.4 6.086l.32.007c2.486 0 4.576-1.386 5.28-3.63l-2.794-.198a2.69 2.69 0 0 1-2.486 1.63v-1c.687-.001 1.29-.387 1.569-1.028l.052-.12h-3.271c.103.275.233.487.376.646.274.304.674.501 1.274.501v1l-.31-.014c-1.51-.135-2.426-1.276-2.55-3.132h8.294v-.726c-.085-4.007-2.338-5.99-5.159-6.11l-.275-.006c-3.454 0-5.72 2.398-5.72 6.094"/><path fill="#A8A8A8" d="M174.044 58.283c0-1.773.696-2.715 2.324-2.826l.338-.012h1.1v-2.133h-1.1v-1h2.1V55.3q-.362.522-.608 1.144h-1.492c-.778 0-1.122.195-1.294.384-.19.208-.368.621-.368 1.454v7.689h-4.728v-13.66h4.523l.012.404c.556-.283 1.185-.404 1.855-.404v1l-.273.008c-1.331.086-2.128.813-2.499 2.236l-.066-2.244h-2.552v11.66h2.728z"/><path fill="#A8A8A8" d="M161.873 59.142c0-2.42 1.056-3.85 2.904-3.85l.233.009c1.076.088 1.983.792 2.25 1.992l.048.265 2.815-.155c-.299-2.621-2.455-4.251-5.09-4.35l-.256-.005c-3.454 0-5.719 2.398-5.719 6.094l.005.342c.132 3.388 2.226 5.605 5.394 5.744l.32.007c2.838 0 5.104-1.737 5.434-4.53l-2.815-.134c-.242 1.584-1.299 2.42-2.619 2.42v-1c.444 0 .794-.137 1.05-.364.257-.228.488-.607.579-1.206l.137-.89 4.773.223v.116l-.112.951c-.398 3.372-3.161 5.414-6.427 5.414-1.967 0-3.673-.689-4.883-1.975-1.205-1.28-1.836-3.066-1.836-5.118s.631-3.838 1.836-5.119c1.21-1.286 2.916-1.975 4.883-1.975 3.144 0 5.963 1.925 6.34 5.243l.119 1.054-4.795.261-.125-.914c-.128-.937-.765-1.4-1.539-1.4-.635 0-1.053.229-1.344.617-.321.427-.56 1.15-.56 2.233 0 1.082.239 1.805.56 2.232.291.388.709.617 1.344.617v1l-.171-.004c-1.742-.086-2.733-1.501-2.733-3.845M146.217 59.934v-6.622h-2.729v7.502c0 2.596 1.409 4.421 3.939 4.421 1.496 0 2.793-.594 3.431-2.09l.044 1.827h2.531v-11.66h-2.728v6.622l-.012.36c-.109 1.75-1.029 2.697-2.452 2.697v-1c.504 0 .819-.167 1.03-.422.231-.28.434-.79.434-1.635v-7.622h4.728v13.66h-4.506l-.009-.331c-.752.414-1.615.594-2.491.594-1.524 0-2.799-.56-3.678-1.587-.862-1.007-1.261-2.365-1.261-3.834v-8.502h4.729v7.622c0 .942.133 1.473.302 1.746.106.173.259.311.722.311v1l-.269-.011c-1.205-.118-1.69-1.052-1.749-2.686z"/><path fill="#A8A8A8" d="M142.064 59.142c0-3.58-2.126-5.943-5.399-6.087l-.32-.007c-3.454 0-5.72 2.398-5.72 6.094l.007.342c.136 3.501 2.367 5.751 5.713 5.751 3.454 0 5.719-2.397 5.719-6.093m-3.815 0c0-1.083-.239-1.806-.56-2.233-.291-.388-.709-.617-1.344-.617s-1.054.229-1.345.617c-.32.427-.56 1.15-.56 2.233 0 1.082.24 1.805.56 2.232.291.388.71.617 1.345.617v1c-1.848 0-2.905-1.43-2.905-3.85s1.057-3.849 2.905-3.849l.171.004c1.742.086 2.733 1.501 2.733 3.846l-.013.442c-.123 2.15-1.159 3.407-2.891 3.407v-1c.635 0 1.053-.229 1.344-.617.321-.427.56-1.15.56-2.232m4.815 0c0 2.052-.631 3.837-1.835 5.118-1.21 1.286-2.916 1.975-4.884 1.975s-3.674-.689-4.884-1.975c-1.204-1.28-1.836-3.066-1.836-5.118s.632-3.838 1.836-5.119c1.21-1.286 2.916-1.975 4.884-1.975s3.674.689 4.884 1.975c1.204 1.281 1.835 3.066 1.835 5.119"/><path fill="#A8A8A8" d="m122.772 52.312 2.405 6.772 2.337-6.773h4.819l-5.123 14.253c-.303.842-.768 1.55-1.472 2.036-.701.483-1.533.671-2.439.672h-2.782V65.16h2.236l-.105-.277-4.708-12.571zm-1.255 15.96h1.782l.281-.007c1.281-.07 2.1-.636 2.589-1.784l.1-.255 4.641-12.914h-2.683l-3.037 8.8-3.124-8.8h-2.683l4.201 11.22h.814l-.351.858c-.173.48-.482.71-.984.76l-.226.01h-1.32zM113.32 62.002v-12.65h-2.728v12.76c0 1.67 1.005 2.722 2.545 2.847l.315.013h1.606v-2.157h-.924c-.462 0-.739-.201-.801-.62zm1-.187h1.738v4.157h-2.606c-1.069 0-2.054-.34-2.775-1.05-.724-.711-1.085-1.7-1.085-2.81v-13.76h4.728z"/><path fill="#A8A8A8" d="M107.352 62.002v-12.65h-2.729v12.76c0 1.781 1.144 2.86 2.86 2.86h1.607v-2.157h-.924l-.187-.011c-.35-.05-.561-.25-.614-.61zm1-.187h1.738v4.157h-2.607c-1.068 0-2.053-.34-2.774-1.05-.724-.711-1.086-1.7-1.086-2.81v-13.76h4.729zM102.239 53.312h-2.728v11.66h2.728zm-2.772-3.96v2.31h2.838v-2.31zm3.838 3.31h-.066v13.31h-4.728v-13.31h-.044v-4.31h4.838z"/><path fill="#A8A8A8" d="m84.453 52.312 1.649 5.87 1.68-5.87h3.927l1.679 5.87 1.445-5.141.204-.73h4.791l-.304 1h-.013v.046l-3.832 12.615h-4.35l-1.584-5.394-1.583 5.394h-4.35l-4.15-13.66zm-3.441 1 3.542 11.66h2.86l2.331-7.943 2.332 7.943h2.86l3.543-11.66h-2.685l-2.398 8.536-2.442-8.536h-2.42l-2.441 8.536-2.399-8.536zM73.664 61.43v-5.985h3.08v-2.133h-3.08v-2.64h-2.728v2.64H69.11v2.133h1.826v5.985l.004.215c.076 2.19 1.325 3.327 3.626 3.327h2.178v-2.157h-1.76v-1h2.76v4.157h-3.178c-1.346 0-2.544-.344-3.403-1.18-.864-.84-1.227-2.023-1.227-3.362v-4.985H68.11v-4.133h1.826v-2.64h4.728v2.64h3.08v4.133h-3.08v4.985c0 .224.038.318.053.345.023.012.096.04.267.04v1q-1.237 0-1.314-1.217z"/><path fill="#A8A8A8" d="M60.626 61.825c0-1.363 1.166-1.518 2.684-1.803l2.244-.396v.11c0 2.375-1.21 3.541-2.838 3.541v-1c.562 0 .98-.192 1.271-.53.176-.205.333-.5.438-.907l-.942.167v-.001c-.83.156-1.313.243-1.631.405-.125.064-.161.11-.174.131-.012.018-.052.088-.052.283 0 .1.028.165.12.234.118.089.403.218.97.218v1c-1.32 0-2.002-.56-2.082-1.3zm7.634.286v-4.069c0-3.154-1.652-4.884-4.795-4.99l-.309-.004c-2.816 0-4.686 1.408-5.148 3.805l2.794.155c.286-1.276 1.1-1.937 2.354-1.937l.287.011c1.388.1 2.046.96 2.067 2.63l-3.278.66-.5.102c-2.433.523-3.922 1.295-3.922 3.44l.005.191c.113 1.954 1.938 3.13 4.197 3.13 2.002 0 3.3-.901 3.85-2.045.154 1.559 1.52 1.77 2.494 1.8l.388.004.682-.022v-2.025h-.44l-.164-.009c-.36-.042-.562-.25-.562-.827m-5.104-6.04c-.448 0-.725.116-.906.264-.183.15-.366.415-.473.892l-.05.226 2.689-.542c-.066-.26-.156-.423-.245-.524-.136-.154-.4-.316-1.015-.316m6.104 5.876h1.166v3.993l-.968.03-.682.023-.016.001h-.016c-.45 0-1.313.004-2.096-.304a2.9 2.9 0 0 1-1-.648c-.889.74-2.128 1.193-3.636 1.193-1.334 0-2.61-.357-3.577-1.087-.99-.746-1.625-1.863-1.625-3.234 0-1.452.568-2.52 1.616-3.25.417-.292.9-.52 1.426-.708l-3.042-.167.216-1.125c.274-1.42.98-2.6 2.076-3.415 1.087-.807 2.482-1.201 4.054-1.201 1.836 0 3.401.478 4.506 1.561 1.108 1.087 1.598 2.63 1.598 4.433z"/><path fill="#A8A8A8" d="M56.455 57.47c0-2.43-1.26-4.302-3.679-4.416l-.237-.006c-1.408 0-2.706.528-3.388 1.804v-5.5h-2.728v15.62h2.728v-6.556c0-1.958.946-3.036 2.53-3.036l.273.013c1.309.125 1.773 1.187 1.773 3.023v6.556h2.728zm-6.304-4.905c.742-.363 1.573-.517 2.388-.517 1.558 0 2.829.591 3.692 1.632.844 1.016 1.224 2.368 1.224 3.79v8.502h-4.728v-7.556c0-.931-.133-1.454-.301-1.723-.107-.17-.265-.313-.745-.313-.55 0-.882.177-1.095.429-.233.275-.435.775-.435 1.607v7.556h-4.728v-17.62h4.728z"/><path fill="#A8A8A8" d="m29.014 48.352 2.1 8.594 2.117-8.594h4.184l2.132 8.594 2.086-8.594h5.035l-4.69 17.62h-4.642l-1.998-7.607-1.98 7.607h-4.643L24 48.352zm-3.711 1 4.18 15.62h3.102l2.75-10.56 2.771 10.56h3.103l4.158-15.62H42.42l-2.86 11.792-2.926-11.792h-2.618L31.11 61.144l-2.883-11.792z"/><path stroke="#000" stroke-opacity=".08" d="M26 85.772h66.667a1.5 1.5 0 0 1 1.5 1.5v47.999a1.5 1.5 0 0 1-1.5 1.5H26a1.5 1.5 0 0 1-1.5-1.5v-48l.008-.153A1.5 1.5 0 0 1 26 85.772ZM100.667 85.772h66.667a1.5 1.5 0 0 1 1.5 1.5v47.999a1.5 1.5 0 0 1-1.5 1.5h-66.667a1.5 1.5 0 0 1-1.5-1.5v-48l.008-.153a1.5 1.5 0 0 1 1.492-1.346ZM175.333 85.772H242a1.5 1.5 0 0 1 1.5 1.5v47.999a1.5 1.5 0 0 1-1.5 1.5h-66.667a1.5 1.5 0 0 1-1.5-1.5v-48l.008-.153a1.5 1.5 0 0 1 1.492-1.346Z"/><circle cx="16" cy="16" r="4" fill="#E5484D"/><circle cx="28" cy="16" r="4" fill="#52AEFF"/><circle cx="40" cy="16" r="4" fill="#45DEC4"/></g><defs><clipPath id="clip0_1773_63822"><path fill="#fff" d="M0 0h268v96H0z"/></clipPath></defs></svg>