<svg xmlns="http://www.w3.org/2000/svg" width="268" height="96" fill="none" viewBox="0 0 268 96"><g clip-path="url(#clip0_1773_63953)"><path fill="#0A0A0A" d="M0 12C0 5.373 5.373 0 12 0h244c6.627 0 12 5.373 12 12v176c0 6.627-5.373 12-12 12H12c-6.627 0-12-5.373-12-12z"/><rect width="243" height="155" x="12.5" y="12.5" stroke="#fff" stroke-opacity=".145" rx="3.5"/><g clip-path="url(#clip1_1773_63953)"><rect width="144" height="63" x="24.5" y="28.5" stroke="#fff" stroke-opacity=".145" rx="1.5"/><rect width="11" height="4" x="32" y="36" fill="#1F1F1F" rx="2"/><rect width="19" height="4" x="47" y="36" fill="#1F1F1F" rx="2"/><rect width="23" height="4" x="32" y="44" fill="#1F1F1F" rx="2"/><rect width="22" height="6" x="32" y="77" fill="#1F1F1F" rx="3"/><mask id="mask0_1773_63953" width="97" height="58" x="71" y="33" maskUnits="userSpaceOnUse" style="mask-type:alpha"><path fill="#D9D9D9" d="M71 33h97v58H71z"/></mask><g mask="url(#mask0_1773_63953)"><path fill="#1F1F1F" d="m107.626 57.713 11.18-8.149 1.327-3.6.378-1.516 1.895-.758 6.822-2.084 3.411-.38h3.79l2.084 1.896 1.895 2.842 9.664 3.41 3.601 2.464 2.653 4.738 2.652 7.39 1.895 7.58-.568.757-2.463 1.516-5.685 2.085h-1.706l-.947-1.137-.758 18.002 1.705 6.632-35.624 1.705-.758-1.516-.379-4.737 1.137-2.084.947-12.317c-1.364.454-7.643-.19-10.611-.569-.455-13.643 1.452-20.465 2.463-22.17"/><path stroke="#878787" stroke-linecap="round" stroke-width=".8" d="M105.162 79.694c-.758-13.644 1.326-20.34 2.463-21.982 3.348-2.526 10.309-7.693 11.37-8.148M105.162 79.883c2.527.38 8.148.986 10.422.38"/><path stroke="#878787" stroke-linecap="round" stroke-width=".8" d="M128.66 52.596c-.885-.884-2.805-2.653-3.411-2.653-.607 0-3.411 3.159-4.738 4.738-.315-.316-1.099-1.289-1.705-2.653-.758-1.706 1.137-4.359 1.326-6.253.152-1.517 1.895-1.895 2.653-2.274 2.969-1.137 9.816-3.184 13.454-2.274"/><path stroke="#878787" stroke-dasharray="1 2" stroke-linecap="round" stroke-width=".8" d="M131.881 49.754c.884-.38 2.394-1.704 3.221-3.221 1.137-2.085 1.895-4.548.758-5.306"/><path stroke="#878787" stroke-linecap="round" stroke-width=".8" d="M126.764 62.26c-.379-2.21-.569-7.2 1.705-9.474 1.741-1.74 2.913-2.77 4.169-3.134.796-.23 1.625-.192 2.653.102 2.122.606 3.664 1.137 4.169 1.326.505-1.137 1.402-3.752.947-5.116-.568-1.705-3.221-4.548-4.168-4.737M113.689 70.409c.822 2.084 2.388 7.087 2.085 10.422-.277 3.05-1.062 7.421-.795 11.18m.795 3.79c-.457-1.118-.697-2.413-.795-3.79m0 0c-.746.947-1.934 3.941-.721 8.337M148.367 68.135c.253 2.463 1.023 7.466 2.084 7.769 1.327.379 10.233-2.653 10.233-4.358 0-1.706-3.411-16.865-7.58-20.087-3.335-2.577-9.727-4.737-12.506-5.495M149.503 74.767c-.379 5.937-.909 18.646 0 21.981"/><path stroke="#878787" stroke-dasharray="1 2" stroke-linecap="round" stroke-width=".8" d="M122.785 43.69c-.884.19-2.387 2.198-.568 4.169s2.905 2.21 3.221 2.084M124.301 51.08c.758 1.01 2.274 3.563 2.274 5.685M126.954 62.26h4.927c-.442-3.095-.682-9.929 1.895-12.506M107.626 57.902c1.074 2.526 3.79 8.565 6.064 12.507M151.777 50.89c-1.579 2.654-4.472 9.817-3.411 17.245"/><circle cx="129.417" cy="55.439" r=".568" stroke="#878787" stroke-width=".8"/><path stroke="#878787" stroke-dasharray="1 2" stroke-linecap="round" stroke-width=".8" d="M105.162 77.799c2.274.379 7.542 1.023 10.422.568M149.692 74.198c2.843-.631 8.944-2.5 10.612-4.926"/><path fill="#7D7D7D" d="m92.626 55.713 11.18-8.149 1.327-3.6.378-1.516 1.895-.758 6.822-2.084 3.411-.38h3.79l2.084 1.896 1.895 2.842 9.664 3.41 3.601 2.464 2.653 4.738 2.652 7.39 1.895 7.58-.568.757-2.463 1.516-5.685 2.085h-1.706l-.947-1.137-.758 18.002 1.705 6.632-35.624 1.705-.758-1.516-.38-4.737 1.138-2.084.947-12.317c-1.364.454-7.643-.19-10.611-.569-.455-13.643 1.452-20.465 2.463-22.17"/><path stroke="#EDEDED" stroke-linecap="round" stroke-width=".8" d="M90.162 77.694c-.758-13.644 1.326-20.34 2.463-21.982 3.348-2.526 10.309-7.693 11.37-8.148M90.162 77.883c2.527.38 8.148.986 10.422.38"/><path stroke="#EDEDED" stroke-linecap="round" stroke-width=".8" d="M113.66 50.596c-.885-.884-2.805-2.653-3.411-2.653-.607 0-3.411 3.159-4.738 4.738-.315-.316-1.099-1.289-1.705-2.653-.758-1.706 1.137-4.359 1.326-6.253.152-1.517 1.895-1.895 2.653-2.274 2.969-1.137 9.816-3.184 13.454-2.274"/><path stroke="#EDEDED" stroke-dasharray="1 2" stroke-linecap="round" stroke-width=".8" d="M116.881 47.754c.884-.38 2.394-1.704 3.221-3.221 1.137-2.085 1.895-4.548.758-5.306"/><path stroke="#EDEDED" stroke-linecap="round" stroke-width=".8" d="M111.764 60.26c-.379-2.21-.569-7.2 1.705-9.474 1.741-1.74 2.913-2.77 4.169-3.134.796-.23 1.625-.192 2.653.102 2.122.606 3.664 1.137 4.169 1.326.505-1.137 1.402-3.752.947-5.116-.568-1.705-3.221-4.548-4.168-4.737M98.69 68.409c.82 2.084 2.387 7.087 2.084 10.422-.277 3.05-1.062 7.421-.795 11.18m.795 3.79c-.457-1.118-.697-2.413-.795-3.79m0 0c-.745.947-1.934 3.941-.721 8.337M133.367 66.135c.253 2.463 1.023 7.466 2.084 7.769 1.327.379 10.233-2.653 10.233-4.358 0-1.706-3.411-16.865-7.58-20.087-3.335-2.577-9.727-4.737-12.506-5.495M134.503 72.767c-.379 5.937-.909 18.646 0 21.981"/><path stroke="#EDEDED" stroke-dasharray="1 2" stroke-linecap="round" stroke-width=".8" d="M107.785 41.69c-.884.19-2.387 2.198-.568 4.169s2.905 2.21 3.221 2.084M109.301 49.08c.758 1.01 2.274 3.563 2.274 5.685M111.954 60.26h4.927c-.442-3.095-.682-9.929 1.895-12.506M92.626 55.902c1.074 2.526 3.79 8.565 6.064 12.507M136.777 48.89c-1.579 2.654-4.472 9.817-3.411 17.245"/><circle cx="114.417" cy="53.439" r=".568" stroke="#EDEDED" stroke-width=".8"/><path stroke="#EDEDED" stroke-dasharray="1 2" stroke-linecap="round" stroke-width=".8" d="M90.162 75.799c2.274.379 7.542 1.023 10.422.568M134.692 72.198c2.843-.631 8.944-2.5 10.612-4.926"/><path fill="#0F1B2D" d="m77.626 52.713 11.18-8.149 1.326-3.6.38-1.516 1.894-.758 6.822-2.084 3.411-.38h3.79l2.084 1.896 1.895 2.842 9.664 3.41 3.601 2.464 2.653 4.738 2.652 7.39 1.895 7.58-.568.757-2.463 1.516-5.685 2.085h-1.706l-.947-1.137-.758 18.002 1.705 6.632-35.624 1.705-.758-1.516-.38-4.737 1.138-2.084.947-12.317c-1.364.454-7.643-.19-10.611-.569-.455-13.643 1.452-20.465 2.463-22.17"/><path stroke="#0070F3" stroke-linecap="round" stroke-width=".8" d="M75.162 74.694c-.758-13.644 1.326-20.34 2.463-21.982 3.348-2.526 10.309-7.693 11.37-8.148M75.162 74.883c2.527.38 8.148.986 10.422.38"/><path stroke="#0070F3" stroke-linecap="round" stroke-width=".8" d="M98.66 47.596c-.885-.884-2.805-2.653-3.411-2.653-.607 0-3.411 3.159-4.738 4.738-.315-.316-1.099-1.289-1.705-2.653-.758-1.706 1.137-4.359 1.326-6.253.152-1.517 1.895-1.895 2.653-2.274 2.97-1.137 9.816-3.184 13.454-2.274"/><path stroke="#0070F3" stroke-dasharray="1 2" stroke-linecap="round" stroke-width=".8" d="M101.881 44.754c.884-.38 2.394-1.704 3.221-3.221 1.137-2.085 1.895-4.548.758-5.306"/><path stroke="#0070F3" stroke-linecap="round" stroke-width=".8" d="M96.764 57.26c-.38-2.21-.569-7.2 1.705-9.474 1.741-1.74 2.913-2.77 4.169-3.134.796-.23 1.625-.192 2.653.102 2.122.606 3.664 1.137 4.169 1.326.505-1.137 1.402-3.752.947-5.116-.568-1.705-3.221-4.548-4.168-4.737M83.69 65.409c.82 2.084 2.387 7.087 2.084 10.422-.278 3.05-1.062 7.421-.795 11.18m.795 3.79c-.457-1.118-.697-2.413-.795-3.79m0 0c-.745.947-1.934 3.941-.721 8.337M118.367 63.135c.253 2.463 1.023 7.466 2.084 7.769 1.327.379 10.233-2.653 10.233-4.358 0-1.706-3.411-16.865-7.58-20.087-3.335-2.577-9.727-4.737-12.506-5.495M119.503 69.767c-.379 5.937-.909 18.646 0 21.981"/><path stroke="#0070F3" stroke-dasharray="1 2" stroke-linecap="round" stroke-width=".8" d="M92.785 38.69c-.884.19-2.387 2.198-.568 4.169s2.905 2.21 3.221 2.084M94.3 46.08c.759 1.01 2.275 3.563 2.275 5.685M96.954 57.26h4.927c-.442-3.095-.682-9.929 1.895-12.506M77.626 52.902c1.074 2.526 3.79 8.565 6.064 12.507M121.777 45.89c-1.579 2.654-4.472 9.817-3.411 17.245"/><circle cx="99.417" cy="50.439" r=".568" stroke="#0070F3" stroke-width=".8"/><path stroke="#0070F3" stroke-dasharray="1 2" stroke-linecap="round" stroke-width=".8" d="M75.162 72.799c2.274.379 7.542 1.023 10.422.568M119.692 69.198c2.843-.631 8.944-2.5 10.612-4.926"/></g></g><path stroke="#fff" stroke-opacity=".145" d="M175 28.5h67a1.5 1.5 0 0 1 1.5 1.5v60a1.5 1.5 0 0 1-1.5 1.5h-67a1.5 1.5 0 0 1-1.5-1.5V30a1.5 1.5 0 0 1 1.5-1.5Z"/></g><defs><clipPath id="clip0_1773_63953"><path fill="#fff" d="M0 0h268v96H0z"/></clipPath><clipPath id="clip1_1773_63953"><path fill="#fff" d="M24 28h145v64H24z"/></clipPath></defs></svg>