<svg xmlns="http://www.w3.org/2000/svg" width="624" height="155" fill="none" viewBox="0 0 624 155"><mask id="path-1-outside-1_1878_25569" width="139" height="155" x="485" y="0" fill="#000" maskUnits="userSpaceOnUse"><path fill="#fff" d="M485 0h139v155H485z"/><path d="M486 0h130a8 8 0 0 1 8 8v139a8 8 0 0 1-8 8H486z"/></mask><path fill="#0A0A0A" d="M486 0h130a8 8 0 0 1 8 8v139a8 8 0 0 1-8 8H486z"/><path fill="#1F1F1F" d="M486 0h138zm138 155H486zm-139 0V0h2v155zM624 0v155z" mask="url(#path-1-outside-1_1878_25569)"/><path fill="#EDEDED" d="M542.379 20.19h1.276l2.816 7.81h-1.034l-.781-2.222h-3.278L540.597 28h-1.034zm1.958 4.664-1.32-3.839-1.32 3.839zm5.318 3.278q-.804 0-1.408-.374a2.46 2.46 0 0 1-.935-1.067q-.33-.693-.33-1.606t.33-1.606a2.46 2.46 0 0 1 .935-1.067q.604-.374 1.408-.374.67 0 1.188.242.528.231.858.693.33.45.429 1.089l-.968.066q-.1-.572-.506-.891-.396-.32-1.001-.319-.804 0-1.254.572-.451.572-.451 1.595t.451 1.595 1.254.572q.605 0 1.001-.33.407-.34.506-.99l.968.066q-.099.649-.429 1.133a2.26 2.26 0 0 1-.858.737 2.6 2.6 0 0 1-1.188.264m5.528-.132q-.792 0-1.177-.363-.374-.363-.374-1.133v-5.698h.924v5.676q0 .385.165.55.177.154.55.154h.836V28zm-2.409-5.83h3.333v.814h-3.333zm4.411 0h.924V28h-.924zm-.022-1.991h.968v1.078h-.968zm1.962 1.991h1.012l1.694 4.884 1.694-4.884h1.012L562.414 28h-1.166zm8.523 5.962q-.815 0-1.419-.374a2.47 2.47 0 0 1-.935-1.056q-.32-.693-.319-1.617 0-.913.319-1.606.33-.693.924-1.067t1.386-.374q.759 0 1.342.363.582.352.902 1.045.33.693.33 1.65v.275h-4.235q.043.924.484 1.408.45.473 1.221.473.561 0 .924-.253.374-.264.528-.726l.99.077a2.4 2.4 0 0 1-.891 1.298q-.65.484-1.551.484m1.518-3.575q-.067-.814-.484-1.221-.408-.418-1.078-.418-.682 0-1.122.418-.43.419-.539 1.221z"/><path fill="#0A0A0A" d="M0 8a8 8 0 0 1 8-8h124v155H8a8 8 0 0 1-8-8z"/><path fill="#1F1F1F" d="M0 0h132zm132 155H0zM0 155V0zM132.5 0v155h-1V0z"/><path fill="#1A1A1A" d="M264 24c0-5.523 4.477-10 10-10h72c5.523 0 10 4.477 10 10s-4.477 10-10 10h-72c-5.523 0-10-4.477-10-10"/><path fill="#A0A0A0" d="M271.173 22.17h.902V28h-.902zm-.022-.913v-1.045h.946v1.045zm7.545-1.067V28h-.814l-.033-.858c-.33.616-.957.99-1.859.99-1.683 0-2.464-1.43-2.464-3.047s.781-3.047 2.464-3.047c.858 0 1.474.33 1.804.924V20.19zm-4.224 4.895c0 1.133.484 2.189 1.705 2.189 1.199 0 1.694-1.078 1.694-2.189 0-1.155-.495-2.222-1.694-2.222-1.221 0-1.705 1.056-1.705 2.222m6.111-4.895h.902v6.644c0 .253.121.363.374.363h.495V28h-.627c-.693 0-1.144-.451-1.144-1.122zm2.622 4.895c0-1.848 1.045-3.047 2.662-3.047 1.298 0 2.431.869 2.53 2.926l.011.407h-4.246c.088 1.199.693 1.903 1.705 1.903.638 0 1.21-.374 1.474-.99l.968.066c-.341 1.1-1.32 1.782-2.442 1.782-1.617 0-2.662-1.199-2.662-3.047m.979-.517h3.234c-.165-1.232-.825-1.672-1.551-1.672-.935 0-1.54.616-1.683 1.672m8.012-.187h3.63v.836h-3.63zm7.83-2.211h.825l.033 1.001c.297-.781.99-1.133 1.793-1.133 1.331 0 1.969.979 1.969 2.211V28h-.902v-3.487c0-1.078-.363-1.672-1.254-1.672-.946 0-1.562.594-1.562 1.672V28h-.902zm8.507 5.962c-1.617 0-2.662-1.199-2.662-3.047s1.045-3.047 2.662-3.047 2.662 1.199 2.662 3.047-1.045 3.047-2.662 3.047m-1.716-3.047c0 1.364.627 2.189 1.716 2.189 1.078 0 1.716-.825 1.716-2.189s-.638-2.189-1.716-2.189c-1.089 0-1.716.825-1.716 2.189m12.299-.968c-.132-.77-.759-1.221-1.474-1.221-1.089 0-1.716.825-1.716 2.189s.627 2.189 1.716 2.189c.748 0 1.386-.495 1.518-1.331l.957.055c-.187 1.32-1.232 2.134-2.475 2.134-1.617 0-2.662-1.199-2.662-3.047s1.045-3.047 2.662-3.047c1.199 0 2.266.77 2.42 2.013zm2.287-3.927h.902v2.794c.341-.649 1.023-.946 1.749-.946 1.331 0 1.969.979 1.969 2.211V28h-.902v-3.421c0-1.089-.363-1.683-1.254-1.683-.946 0-1.562.594-1.562 1.683V28h-.902zm6.105 3.696c.231-1.133 1.133-1.848 2.376-1.848 1.507 0 2.343.88 2.343 2.442v2.343c0 .264.11.374.363.374h.231V28h-.385c-.594 0-1.111-.198-1.1-.913-.253.55-.913 1.045-1.837 1.045-1.155 0-2.09-.616-2.09-1.65 0-1.199.913-1.507 2.189-1.76l1.727-.33c-.011-1.012-.484-1.496-1.441-1.496-.748 0-1.243.385-1.419 1.067zm.847 2.596c0 .473.407.858 1.265.847.968 0 1.727-.682 1.727-2.035v-.099l-1.397.242c-.869.154-1.595.22-1.595 1.045m5.703-4.312h.792l.033 1.078c.198-.737.638-1.078 1.397-1.078h.561v.792h-.561c-.891 0-1.32.55-1.32 1.562V28h-.902zm5.992 5.522c-1.595 0-2.618-1.188-2.618-2.827s1.045-2.827 2.618-2.827c.781 0 1.419.44 1.672 1.067v-.935h.869v5.258c0 1.529-1.045 2.354-2.563 2.354-1.243 0-2.178-.682-2.431-1.694l.946-.066c.231.561.737.902 1.485.902 1.034 0 1.661-.462 1.661-1.298v-.968a1.84 1.84 0 0 1-1.639 1.034m-1.672-2.827c0 1.144.627 1.969 1.672 1.969 1.001 0 1.639-.836 1.65-1.969.022-1.133-.616-1.969-1.65-1.969-1.045 0-1.672.825-1.672 1.969m5.66.22c0-1.848 1.045-3.047 2.662-3.047 1.298 0 2.431.869 2.53 2.926l.011.407h-4.246c.088 1.199.693 1.903 1.705 1.903.638 0 1.21-.374 1.474-.99l.968.066c-.341 1.1-1.32 1.782-2.442 1.782-1.617 0-2.662-1.199-2.662-3.047m.979-.517h3.234c-.165-1.232-.825-1.672-1.551-1.672-.935 0-1.54.616-1.683 1.672"/><path fill="#0070F3" d="M104.275 54.75a.75.75 0 1 1 0 1.5H1a.75.75 0 0 1 0-1.5z"/><path fill="#0070F3" d="M570.434 54.75a.75.75 0 0 1 0 1.5H17.351a.75.75 0 0 1 0-1.5z" opacity=".09"/><path fill="#0070F3" d="M115.376 54.75a.75.75 0 0 1 0 1.5h-.101v-1.5zm7.25 0a.75.75 0 0 1 0 1.5h-.202a.75.75 0 0 1 0-1.5zm7.249 0a.75.75 0 0 1 0 1.5h-.201a.75.75 0 0 1 0-1.5zm7.25 0a.75.75 0 0 1 0 1.5h-.202a.75.75 0 0 1 0-1.5zm7.249 0a.75.75 0 0 1 0 1.5h-.201a.75.75 0 0 1 0-1.5zm7.25 0a.75.75 0 0 1 0 1.5h-.202a.75.75 0 0 1 0-1.5zm7.249 0a.75.75 0 0 1 0 1.5h-.201a.75.75 0 0 1 0-1.5zm7.25 0a.75.75 0 0 1 0 1.5h-.202a.75.75 0 0 1 0-1.5zm7.249 0a.75.75 0 0 1 0 1.5h-.201a.75.75 0 0 1 0-1.5zm7.25 0a.75.75 0 0 1 0 1.5h-.202a.75.75 0 0 1 0-1.5zm7.249 0a.75.75 0 0 1 0 1.5h-.201a.75.75 0 0 1 0-1.5zm7.25 0a.75.75 0 0 1 0 1.5h-.201a.75.75 0 0 1 0-1.5zm7.249 0a.75.75 0 0 1 0 1.5h-.201a.75.75 0 0 1 0-1.5zm7.25 0a.75.75 0 0 1 0 1.5h-.201a.75.75 0 0 1 0-1.5zm7.249 0a.75.75 0 0 1 0 1.5h-.201a.75.75 0 0 1 0-1.5zm7.25 0a.75.75 0 0 1 0 1.5h-.201a.75.75 0 0 1 0-1.5zm7.249 0a.75.75 0 0 1 0 1.5h-.201a.75.75 0 0 1 0-1.5zm7.25 0a.75.75 0 0 1 0 1.5h-.201a.75.75 0 0 1 0-1.5zm7.249 0a.75.75 0 0 1 0 1.5h-.201a.75.75 0 0 1 0-1.5zm7.25 0a.75.75 0 0 1 0 1.5h-.201a.75.75 0 0 1 0-1.5zm7.249 0a.75.75 0 0 1 0 1.5h-.201a.75.75 0 0 1 0-1.5zm7.25 0a.75.75 0 0 1 0 1.5h-.201a.75.75 0 0 1 0-1.5zm7.249 0a.75.75 0 0 1 0 1.5h-.201a.75.75 0 0 1 0-1.5zm7.25 0a.75.75 0 0 1 0 1.5h-.201a.75.75 0 0 1 0-1.5zm7.249 0a.75.75 0 0 1 0 1.5h-.201a.75.75 0 0 1 0-1.5zm7.25 0a.75.75 0 0 1 0 1.5h-.201a.75.75 0 0 1 0-1.5zm7.249 0a.75.75 0 0 1 0 1.5h-.201a.75.75 0 0 1 0-1.5zm7.25 0a.75.75 0 0 1 0 1.5h-.201a.75.75 0 0 1 0-1.5zm7.249 0a.75.75 0 1 1 0 1.5h-.201a.75.75 0 0 1 0-1.5zm7.25 0a.75.75 0 0 1 0 1.5h-.201a.75.75 0 0 1 0-1.5zm7.249 0a.75.75 0 1 1 0 1.5h-.201a.75.75 0 0 1 0-1.5zm7.25 0a.75.75 0 0 1 0 1.5h-.201a.75.75 0 0 1 0-1.5zm7.249 0a.75.75 0 1 1 0 1.5h-.201a.75.75 0 0 1 0-1.5zm7.25 0a.75.75 0 0 1 0 1.5h-.201a.75.75 0 0 1 0-1.5zm7.249 0a.75.75 0 1 1 0 1.5h-.201a.75.75 0 0 1 0-1.5zm7.25 0a.75.75 0 0 1 0 1.5h-.201a.75.75 0 0 1 0-1.5zm7.249 0a.75.75 0 1 1 0 1.5h-.201a.75.75 0 0 1 0-1.5zm7.25 0a.75.75 0 1 1 0 1.5h-.201a.75.75 0 0 1 0-1.5zm7.249 0a.75.75 0 1 1 0 1.5h-.201a.75.75 0 0 1 0-1.5zm7.25 0a.75.75 0 1 1 0 1.5h-.201a.75.75 0 0 1 0-1.5zm7.249 0a.75.75 0 1 1 0 1.5h-.201a.75.75 0 0 1 0-1.5zm7.25 0a.75.75 0 1 1 0 1.5h-.201a.75.75 0 0 1 0-1.5zm7.25 0a.75.75 0 0 1 0 1.5h-.202a.75.75 0 0 1 0-1.5zm7.249 0a.75.75 0 1 1 0 1.5h-.201a.75.75 0 0 1 0-1.5zm7.25 0a.75.75 0 1 1 0 1.5h-.202a.75.75 0 0 1 0-1.5zm7.249 0a.75.75 0 1 1 0 1.5h-.201a.75.75 0 0 1 0-1.5zm7.25 0a.75.75 0 1 1 0 1.5h-.202a.75.75 0 0 1 0-1.5zm7.25 0a.75.75 0 0 1 0 1.5h-.202a.75.75 0 0 1 0-1.5zm7.25 0a.75.75 0 0 1 0 1.5h-.202a.75.75 0 0 1 0-1.5zm7.249 0a.75.75 0 0 1 0 1.5h-.202a.75.75 0 0 1 0-1.5zm7.25 0a.75.75 0 0 1 0 1.5h-.202a.75.75 0 0 1 0-1.5zm7.249 0a.75.75 0 0 1 0 1.5h-.202a.75.75 0 0 1 0-1.5zm7.25 0a.75.75 0 0 1 0 1.5h-.202a.75.75 0 0 1 0-1.5zm7.148 0v1.5h-.101a.75.75 0 0 1 0-1.5z"/><path fill="#0070F3" d="M607.529 54.75a.75.75 0 1 1 0 1.5H487.525a.75.75 0 0 1 0-1.5z"/><path fill="#FF990A" d="M105.546 70.75a.75.75 0 0 1 0 1.5H21.728a.75.75 0 0 1 0-1.5z"/><path fill="#FF990A" d="M536.87 70.75a.75.75 0 0 1 0 1.5H31.458a.75.75 0 0 1 0-1.5z" opacity=".09"/><path fill="#FF990A" d="M105.647 70.75a.75.75 0 1 1 0 1.5h-.1v-1.5zm7.218 0a.75.75 0 0 1 0 1.5h-.2a.75.75 0 0 1 0-1.5zm7.219 0a.75.75 0 0 1 0 1.5h-.2a.75.75 0 0 1 0-1.5zm7.219 0a.75.75 0 0 1 0 1.5h-.201a.75.75 0 0 1 0-1.5zm7.218 0a.75.75 0 0 1 0 1.5h-.201a.75.75 0 0 1 0-1.5zm7.218 0a.75.75 0 0 1 0 1.5h-.2a.75.75 0 0 1 0-1.5zm7.219 0a.75.75 0 0 1 0 1.5h-.2a.75.75 0 0 1 0-1.5zm7.219 0a.75.75 0 0 1 0 1.5h-.201a.75.75 0 0 1 0-1.5zm7.218 0a.75.75 0 0 1 0 1.5h-.201a.75.75 0 0 1 0-1.5zm7.218 0a.75.75 0 0 1 0 1.5h-.2a.75.75 0 0 1 0-1.5zm7.219 0a.75.75 0 0 1 0 1.5h-.2a.75.75 0 0 1 0-1.5zm7.219 0a.75.75 0 0 1 0 1.5h-.201a.75.75 0 0 1 0-1.5zm7.218 0a.75.75 0 0 1 0 1.5h-.201a.75.75 0 0 1 0-1.5zm7.218 0a.75.75 0 1 1 0 1.5h-.2a.75.75 0 0 1 0-1.5zm7.219 0a.75.75 0 0 1 0 1.5h-.201a.75.75 0 0 1 0-1.5zm7.218 0a.75.75 0 0 1 0 1.5h-.2a.75.75 0 1 1 0-1.5zm7.219 0a.75.75 0 0 1 0 1.5h-.201a.75.75 0 0 1 0-1.5zm7.218 0a.75.75 0 0 1 0 1.5h-.2a.75.75 0 0 1 0-1.5zm7.219 0a.75.75 0 0 1 0 1.5h-.201a.75.75 0 0 1 0-1.5zm7.218 0a.75.75 0 0 1 0 1.5h-.2a.75.75 0 1 1 0-1.5zm7.219 0a.75.75 0 0 1 0 1.5h-.201a.75.75 0 0 1 0-1.5zm7.218 0a.75.75 0 0 1 0 1.5h-.201a.75.75 0 0 1 0-1.5zm7.218 0a.75.75 0 0 1 0 1.5h-.2a.75.75 0 0 1 0-1.5zm7.219 0a.75.75 0 0 1 0 1.5h-.2a.75.75 0 1 1 0-1.5zm7.219 0a.75.75 0 0 1 0 1.5h-.201a.75.75 0 0 1 0-1.5zm7.218 0a.75.75 0 0 1 0 1.5h-.201a.75.75 0 0 1 0-1.5zm7.218 0a.75.75 0 0 1 0 1.5h-.2a.75.75 0 0 1 0-1.5zm7.219 0a.75.75 0 0 1 0 1.5h-.2a.75.75 0 1 1 0-1.5zm7.219 0a.75.75 0 0 1 0 1.5h-.202a.75.75 0 0 1 0-1.5zm7.218 0a.75.75 0 0 1 0 1.5h-.201a.75.75 0 0 1 0-1.5zm7.218 0a.75.75 0 0 1 0 1.5h-.2a.75.75 0 0 1 0-1.5zm7.219 0a.75.75 0 0 1 0 1.5h-.2a.75.75 0 0 1 0-1.5zm7.219 0a.75.75 0 0 1 0 1.5h-.201a.75.75 0 1 1 0-1.5zm7.217 0a.75.75 0 1 1 0 1.5h-.2a.75.75 0 0 1 0-1.5zm7.219 0a.75.75 0 0 1 0 1.5h-.2a.75.75 0 0 1 0-1.5zm7.219 0a.75.75 0 0 1 0 1.5h-.2a.75.75 0 0 1 0-1.5zm7.219 0a.75.75 0 0 1 0 1.5h-.201a.75.75 0 1 1 0-1.5zm7.217 0a.75.75 0 1 1 0 1.5h-.2a.75.75 0 0 1 0-1.5zm7.219 0a.75.75 0 0 1 0 1.5h-.2a.75.75 0 0 1 0-1.5zm7.219 0a.75.75 0 0 1 0 1.5h-.201a.75.75 0 0 1 0-1.5zm7.218 0a.75.75 0 0 1 0 1.5h-.2a.75.75 0 1 1 0-1.5zm7.218 0a.75.75 0 1 1 0 1.5h-.2a.75.75 0 0 1 0-1.5zm7.219 0a.75.75 0 0 1 0 1.5h-.2a.75.75 0 0 1 0-1.5zm7.219 0a.75.75 0 0 1 0 1.5h-.201a.75.75 0 0 1 0-1.5zm7.218 0a.75.75 0 0 1 0 1.5h-.2a.75.75 0 1 1 0-1.5zm7.219 0a.75.75 0 0 1 0 1.5h-.201a.75.75 0 0 1 0-1.5zm7.218 0a.75.75 0 0 1 0 1.5h-.201a.75.75 0 0 1 0-1.5zm7.218 0a.75.75 0 0 1 0 1.5h-.2a.75.75 0 0 1 0-1.5zm7.219 0a.75.75 0 0 1 0 1.5h-.2a.75.75 0 1 1 0-1.5zm7.219 0a.75.75 0 0 1 0 1.5h-.201a.75.75 0 0 1 0-1.5zm7.218 0a.75.75 0 0 1 0 1.5h-.201a.75.75 0 0 1 0-1.5zm7.218 0a.75.75 0 0 1 0 1.5h-.2a.75.75 0 0 1 0-1.5zm7.219 0a.75.75 0 0 1 0 1.5h-.2a.75.75 0 1 1 0-1.5zm7.219 0a.75.75 0 0 1 0 1.5h-.202a.75.75 0 0 1 0-1.5zm7.217 0a.75.75 0 1 1 0 1.5h-.2a.75.75 0 0 1 0-1.5zm7.219 0a.75.75 0 0 1 0 1.5h-.2a.75.75 0 0 1 0-1.5zm7.219 0a.75.75 0 0 1 0 1.5h-.2a.75.75 0 1 1 0-1.5zm7.118 0v1.5h-.101a.75.75 0 0 1 0-1.5z"/><path fill="#FF990A" d="M573.275 70.75a.75.75 0 0 1 0 1.5h-63.387a.75.75 0 1 1 0-1.5z"/><path fill="#8E4EC6" d="M108.465 86.75a.75.75 0 0 1 0 1.5h-84.79a.75.75 0 0 1 0-1.5z"/><path fill="#8E4EC6" d="M569.947 86.75a.75.75 0 0 1 0 1.5H25.62a.75.75 0 0 1 0-1.5z" opacity=".09"/><path fill="#8E4EC6" d="M108.565 86.75a.75.75 0 1 1 0 1.5h-.099v-1.5zm7.159 0a.75.75 0 0 1 0 1.5h-.2a.75.75 0 0 1 0-1.5zm7.158 0a.75.75 0 0 1 0 1.5h-.198a.75.75 0 1 1 0-1.5zm7.159 0a.75.75 0 0 1 0 1.5h-.199a.75.75 0 0 1 0-1.5zm7.158 0a.75.75 0 0 1 0 1.5H137a.75.75 0 0 1 0-1.5zm7.158 0a.75.75 0 1 1 0 1.5h-.198a.75.75 0 0 1 0-1.5zm7.16 0a.75.75 0 0 1 0 1.5h-.2a.75.75 0 0 1 0-1.5zm7.158 0a.75.75 0 0 1 0 1.5h-.199a.75.75 0 0 1 0-1.5zm7.158 0a.75.75 0 0 1 0 1.5h-.198a.75.75 0 0 1 0-1.5zm7.158 0a.75.75 0 0 1 0 1.5h-.198a.75.75 0 0 1 0-1.5zm7.159 0a.75.75 0 1 1 0 1.5h-.199a.75.75 0 0 1 0-1.5zm7.159 0a.75.75 0 0 1 0 1.5h-.2a.75.75 0 0 1 0-1.5zm7.158 0a.75.75 0 0 1 0 1.5h-.198a.75.75 0 1 1 0-1.5zm7.159 0a.75.75 0 0 1 0 1.5h-.199a.75.75 0 0 1 0-1.5zm7.158 0a.75.75 0 0 1 0 1.5h-.199a.75.75 0 0 1 0-1.5zm7.158 0a.75.75 0 1 1 0 1.5h-.198a.75.75 0 0 1 0-1.5zm7.16 0a.75.75 0 0 1 0 1.5h-.2a.75.75 0 0 1 0-1.5zm7.158 0a.75.75 0 0 1 0 1.5h-.199a.75.75 0 1 1 0-1.5zm7.158 0a.75.75 0 0 1 0 1.5h-.198a.75.75 0 0 1 0-1.5zm7.158 0a.75.75 0 0 1 0 1.5h-.198a.75.75 0 0 1 0-1.5zm7.159 0a.75.75 0 0 1 0 1.5h-.199a.75.75 0 0 1 0-1.5zm7.159 0a.75.75 0 0 1 0 1.5h-.2a.75.75 0 0 1 0-1.5zm7.158 0a.75.75 0 0 1 0 1.5h-.198a.75.75 0 1 1 0-1.5zm7.159 0a.75.75 0 0 1 0 1.5h-.199a.75.75 0 0 1 0-1.5zm7.158 0a.75.75 0 0 1 0 1.5h-.199a.75.75 0 0 1 0-1.5zm7.158 0a.75.75 0 1 1 0 1.5h-.198a.75.75 0 0 1 0-1.5zm7.16 0a.75.75 0 0 1 0 1.5h-.2a.75.75 0 0 1 0-1.5zm7.158 0a.75.75 0 0 1 0 1.5h-.199a.75.75 0 1 1 0-1.5zm7.158 0a.75.75 0 0 1 0 1.5h-.198a.75.75 0 1 1 0-1.5zm7.158 0a.75.75 0 0 1 0 1.5h-.198a.75.75 0 0 1 0-1.5zm7.159 0a.75.75 0 0 1 0 1.5h-.199a.75.75 0 0 1 0-1.5zm7.159 0a.75.75 0 0 1 0 1.5h-.2a.75.75 0 0 1 0-1.5zm7.158 0a.75.75 0 0 1 0 1.5h-.199a.75.75 0 0 1 0-1.5zm7.159 0a.75.75 0 0 1 0 1.5h-.199a.75.75 0 1 1 0-1.5zm7.158 0a.75.75 0 0 1 0 1.5h-.199a.75.75 0 0 1 0-1.5zm7.158 0a.75.75 0 1 1 0 1.5h-.198a.75.75 0 0 1 0-1.5zm7.159 0a.75.75 0 0 1 0 1.5h-.199a.75.75 0 0 1 0-1.5zm7.159 0a.75.75 0 0 1 0 1.5h-.2a.75.75 0 0 1 0-1.5zm7.158 0a.75.75 0 0 1 0 1.5h-.198a.75.75 0 1 1 0-1.5zm7.158 0a.75.75 0 0 1 0 1.5h-.198a.75.75 0 0 1 0-1.5zm7.159 0a.75.75 0 0 1 0 1.5h-.199a.75.75 0 0 1 0-1.5zm7.158 0a.75.75 0 1 1 0 1.5h-.199a.75.75 0 0 1 0-1.5zm7.159 0a.75.75 0 0 1 0 1.5h-.199a.75.75 0 0 1 0-1.5zm7.159 0a.75.75 0 0 1 0 1.5h-.199a.75.75 0 1 1 0-1.5zm7.158 0a.75.75 0 0 1 0 1.5h-.199a.75.75 0 0 1 0-1.5zm7.158 0a.75.75 0 0 1 0 1.5h-.198a.75.75 0 0 1 0-1.5zm7.159 0a.75.75 0 1 1 0 1.5h-.199a.75.75 0 0 1 0-1.5zm7.159 0a.75.75 0 0 1 0 1.5h-.2a.75.75 0 0 1 0-1.5zm7.158 0a.75.75 0 0 1 0 1.5h-.198a.75.75 0 1 1 0-1.5zm7.159 0a.75.75 0 0 1 0 1.5h-.199a.75.75 0 0 1 0-1.5zm7.158 0a.75.75 0 0 1 0 1.5h-.199a.75.75 0 0 1 0-1.5zm7.158 0a.75.75 0 1 1 0 1.5h-.198a.75.75 0 0 1 0-1.5zm7.16 0a.75.75 0 0 1 0 1.5h-.2a.75.75 0 0 1 0-1.5zm7.158 0a.75.75 0 0 1 0 1.5h-.199a.75.75 0 1 1 0-1.5zm7.158 0a.75.75 0 0 1 0 1.5h-.198a.75.75 0 0 1 0-1.5zm7.158 0a.75.75 0 0 1 0 1.5h-.198a.75.75 0 0 1 0-1.5zm7.159 0a.75.75 0 1 1 0 1.5h-.199a.75.75 0 0 1 0-1.5zm7.059 0v1.5h-.1a.75.75 0 0 1 0-1.5z"/><path fill="#8E4EC6" d="M602.948 86.75a.75.75 0 0 1 0 1.5h-93.06a.75.75 0 1 1 0-1.5z"/><path fill="#DA3036" d="M91.29 102.75a.75.75 0 0 1 0 1.5H56.753a.75.75 0 0 1 0-1.5z"/><path fill="#DA3036" d="M516.439 102.75a.75.75 0 1 1 0 1.5H58.212a.75.75 0 0 1 0-1.5z" opacity=".09"/><path fill="#DA3036" d="M91.877 102.75a.75.75 0 0 1 0 1.5h-.1v-1.5zm7.215 0a.75.75 0 0 1 0 1.5h-.2a.75.75 0 0 1 0-1.5zm7.216 0a.75.75 0 0 1 0 1.5h-.201a.75.75 0 0 1 0-1.5zm7.215 0a.75.75 0 1 1 0 1.5h-.2a.75.75 0 0 1 0-1.5zm7.216 0a.75.75 0 0 1 0 1.5h-.2a.75.75 0 0 1 0-1.5zm7.216 0a.75.75 0 0 1 0 1.5h-.2a.75.75 0 0 1 0-1.5zm7.216 0a.75.75 0 0 1 0 1.5h-.201a.75.75 0 0 1 0-1.5zm7.215 0a.75.75 0 0 1 0 1.5h-.2a.75.75 0 1 1 0-1.5zm7.216 0a.75.75 0 0 1 0 1.5h-.201a.75.75 0 0 1 0-1.5zm7.215 0a.75.75 0 1 1 0 1.5h-.2a.75.75 0 0 1 0-1.5zm7.216 0a.75.75 0 0 1 0 1.5h-.2a.75.75 0 0 1 0-1.5zm7.216 0a.75.75 0 0 1 0 1.5h-.2a.75.75 0 0 1 0-1.5zm7.216 0a.75.75 0 0 1 0 1.5h-.201a.75.75 0 0 1 0-1.5zm7.215 0a.75.75 0 0 1 0 1.5h-.201a.75.75 0 0 1 0-1.5zm7.216 0a.75.75 0 0 1 0 1.5h-.201a.75.75 0 0 1 0-1.5zm7.215 0a.75.75 0 1 1 0 1.5h-.2a.75.75 0 0 1 0-1.5zm7.216 0a.75.75 0 0 1 0 1.5h-.2a.75.75 0 0 1 0-1.5zm7.216 0a.75.75 0 0 1 0 1.5h-.201a.75.75 0 0 1 0-1.5zm7.216 0a.75.75 0 0 1 0 1.5h-.201a.75.75 0 0 1 0-1.5zm7.215 0a.75.75 0 0 1 0 1.5h-.201a.75.75 0 0 1 0-1.5zm7.215 0a.75.75 0 1 1 0 1.5h-.2a.75.75 0 0 1 0-1.5zm7.216 0a.75.75 0 0 1 0 1.5h-.2a.75.75 0 0 1 0-1.5zm7.216 0a.75.75 0 0 1 0 1.5h-.2a.75.75 0 0 1 0-1.5zm7.216 0a.75.75 0 0 1 0 1.5h-.201a.75.75 0 0 1 0-1.5zm7.216 0a.75.75 0 0 1 0 1.5h-.201a.75.75 0 1 1 0-1.5zm7.215 0a.75.75 0 0 1 0 1.5h-.201a.75.75 0 0 1 0-1.5zm7.215 0a.75.75 0 1 1 0 1.5h-.2a.75.75 0 0 1 0-1.5zm7.216 0a.75.75 0 0 1 0 1.5h-.2a.75.75 0 0 1 0-1.5zm7.216 0a.75.75 0 0 1 0 1.5h-.2a.75.75 0 0 1 0-1.5zm7.216 0a.75.75 0 0 1 0 1.5h-.201a.75.75 0 0 1 0-1.5zm7.216 0a.75.75 0 0 1 0 1.5h-.201a.75.75 0 1 1 0-1.5zm7.215 0a.75.75 0 0 1 0 1.5h-.201a.75.75 0 0 1 0-1.5zm7.215 0a.75.75 0 1 1 0 1.5h-.2a.75.75 0 0 1 0-1.5zm7.216 0a.75.75 0 0 1 0 1.5h-.2a.75.75 0 0 1 0-1.5zm7.216 0a.75.75 0 0 1 0 1.5h-.2a.75.75 0 0 1 0-1.5zm7.216 0a.75.75 0 0 1 0 1.5h-.201a.75.75 0 0 1 0-1.5zm7.215 0a.75.75 0 0 1 0 1.5h-.201a.75.75 0 0 1 0-1.5zm7.215 0a.75.75 0 1 1 0 1.5h-.2a.75.75 0 0 1 0-1.5zm7.216 0a.75.75 0 1 1 0 1.5h-.2a.75.75 0 0 1 0-1.5zm7.216 0a.75.75 0 0 1 0 1.5h-.2a.75.75 0 0 1 0-1.5zm7.216 0a.75.75 0 0 1 0 1.5h-.2a.75.75 0 0 1 0-1.5zm7.216 0a.75.75 0 0 1 0 1.5h-.201a.75.75 0 0 1 0-1.5zm7.216 0a.75.75 0 0 1 0 1.5h-.202a.75.75 0 0 1 0-1.5zm7.214 0a.75.75 0 1 1 0 1.5h-.2a.75.75 0 0 1 0-1.5zm7.216 0a.75.75 0 0 1 0 1.5h-.2a.75.75 0 0 1 0-1.5zm7.216 0a.75.75 0 0 1 0 1.5h-.2a.75.75 0 0 1 0-1.5zm7.216 0a.75.75 0 0 1 0 1.5h-.2a.75.75 0 1 1 0-1.5zm7.216 0a.75.75 0 0 1 0 1.5h-.201a.75.75 0 0 1 0-1.5zm7.216 0a.75.75 0 0 1 0 1.5h-.202a.75.75 0 0 1 0-1.5zm7.214 0a.75.75 0 1 1 0 1.5h-.2a.75.75 0 0 1 0-1.5zm7.216 0a.75.75 0 0 1 0 1.5h-.2a.75.75 0 0 1 0-1.5zm7.216 0a.75.75 0 0 1 0 1.5h-.2a.75.75 0 0 1 0-1.5zm7.216 0a.75.75 0 0 1 0 1.5h-.2a.75.75 0 1 1 0-1.5zm7.216 0a.75.75 0 0 1 0 1.5h-.201a.75.75 0 0 1 0-1.5zm7.215 0a.75.75 0 1 1 0 1.5h-.201a.75.75 0 0 1 0-1.5zm7.216 0a.75.75 0 0 1 0 1.5h-.201a.75.75 0 0 1 0-1.5zm7.215 0a.75.75 0 0 1 0 1.5h-.2a.75.75 0 0 1 0-1.5zm7.216 0a.75.75 0 0 1 0 1.5h-.2a.75.75 0 0 1 0-1.5zm7.216 0a.75.75 0 0 1 0 1.5h-.2a.75.75 0 1 1 0-1.5zm7.115 0v1.5h-.1a.75.75 0 0 1 0-1.5z"/><path fill="#DA3036" d="M549.439 102.75a.75.75 0 1 1 0 1.5h-62.551a.75.75 0 1 1 0-1.5z"/><path fill="#46A758" d="M115.275 118.75a.75.75 0 0 1 0 1.5H62.59a.75.75 0 0 1 0-1.5z"/><path fill="#46A758" d="M572.381 118.75a.75.75 0 0 1 0 1.5H65.023a.75.75 0 0 1 0-1.5z" opacity=".09"/><path fill="#46A758" d="M115.376 118.75a.75.75 0 0 1 0 1.5h-.101v-1.5zm7.214 0a.75.75 0 0 1 0 1.5h-.2a.75.75 0 1 1 0-1.5zm7.215 0a.75.75 0 0 1 0 1.5h-.201a.75.75 0 0 1 0-1.5zm7.214 0a.75.75 0 0 1 0 1.5h-.201a.75.75 0 0 1 0-1.5zm7.214 0a.75.75 0 1 1 0 1.5h-.2a.75.75 0 0 1 0-1.5zm7.215 0a.75.75 0 0 1 0 1.5h-.201a.75.75 0 0 1 0-1.5zm7.214 0a.75.75 0 0 1 0 1.5h-.2a.75.75 0 0 1 0-1.5zm7.215 0a.75.75 0 0 1 0 1.5h-.2a.75.75 0 0 1 0-1.5zm7.214 0a.75.75 0 0 1 0 1.5h-.2a.75.75 0 1 1 0-1.5zm7.215 0a.75.75 0 0 1 0 1.5h-.201a.75.75 0 0 1 0-1.5zm7.215 0a.75.75 0 0 1 0 1.5h-.202a.75.75 0 0 1 0-1.5zm7.213 0a.75.75 0 1 1 0 1.5h-.2a.75.75 0 0 1 0-1.5zm7.215 0a.75.75 0 0 1 0 1.5h-.2a.75.75 0 0 1 0-1.5zm7.214 0a.75.75 0 0 1 0 1.5h-.2a.75.75 0 0 1 0-1.5zm7.215 0a.75.75 0 0 1 0 1.5h-.2a.75.75 0 0 1 0-1.5zm7.215 0a.75.75 0 0 1 0 1.5h-.201a.75.75 0 0 1 0-1.5zm7.214 0a.75.75 0 0 1 0 1.5h-.201a.75.75 0 0 1 0-1.5zm7.214 0a.75.75 0 1 1 0 1.5h-.201a.75.75 0 0 1 0-1.5zm7.214 0a.75.75 0 1 1 0 1.5h-.2a.75.75 0 0 1 0-1.5zm7.215 0a.75.75 0 0 1 0 1.5h-.2a.75.75 0 0 1 0-1.5zm7.214 0a.75.75 0 0 1 0 1.5h-.2a.75.75 0 0 1 0-1.5zm7.215 0a.75.75 0 0 1 0 1.5h-.2a.75.75 0 1 1 0-1.5zm7.215 0a.75.75 0 0 1 0 1.5h-.201a.75.75 0 0 1 0-1.5zm7.214 0a.75.75 0 0 1 0 1.5h-.201a.75.75 0 0 1 0-1.5zm7.214 0a.75.75 0 1 1 0 1.5h-.2a.75.75 0 0 1 0-1.5zm7.214 0a.75.75 0 1 1 0 1.5h-.2a.75.75 0 0 1 0-1.5zm7.215 0a.75.75 0 0 1 0 1.5h-.2a.75.75 0 0 1 0-1.5zm7.215 0a.75.75 0 0 1 0 1.5h-.201a.75.75 0 0 1 0-1.5zm7.214 0a.75.75 0 0 1 0 1.5h-.2a.75.75 0 1 1 0-1.5zm7.215 0a.75.75 0 0 1 0 1.5h-.2a.75.75 0 1 1 0-1.5zm7.214 0a.75.75 0 0 1 0 1.5h-.201a.75.75 0 0 1 0-1.5zm7.214 0a.75.75 0 1 1 0 1.5h-.2a.75.75 0 0 1 0-1.5zm7.215 0a.75.75 0 0 1 0 1.5h-.201a.75.75 0 0 1 0-1.5zm7.214 0a.75.75 0 0 1 0 1.5h-.2a.75.75 0 0 1 0-1.5zm7.215 0a.75.75 0 0 1 0 1.5h-.2a.75.75 0 0 1 0-1.5zm7.214 0a.75.75 0 0 1 0 1.5h-.2a.75.75 0 0 1 0-1.5zm7.215 0a.75.75 0 0 1 0 1.5h-.2a.75.75 0 1 1 0-1.5zm7.215 0a.75.75 0 0 1 0 1.5h-.202a.75.75 0 0 1 0-1.5zm7.213 0a.75.75 0 1 1 0 1.5h-.2a.75.75 0 0 1 0-1.5zm7.215 0a.75.75 0 0 1 0 1.5h-.2a.75.75 0 0 1 0-1.5zm7.214 0a.75.75 0 0 1 0 1.5h-.2a.75.75 0 0 1 0-1.5zm7.215 0a.75.75 0 0 1 0 1.5h-.2a.75.75 0 0 1 0-1.5zm7.215 0a.75.75 0 0 1 0 1.5h-.201a.75.75 0 0 1 0-1.5zm7.214 0a.75.75 0 0 1 0 1.5h-.201a.75.75 0 0 1 0-1.5zm7.215 0a.75.75 0 0 1 0 1.5h-.201a.75.75 0 0 1 0-1.5zm7.213 0a.75.75 0 1 1 0 1.5h-.2a.75.75 0 0 1 0-1.5zm7.215 0a.75.75 0 0 1 0 1.5h-.2a.75.75 0 0 1 0-1.5zm7.215 0a.75.75 0 0 1 0 1.5h-.201a.75.75 0 0 1 0-1.5zm7.214 0a.75.75 0 0 1 0 1.5h-.2a.75.75 0 0 1 0-1.5zm7.215 0a.75.75 0 0 1 0 1.5h-.2a.75.75 0 1 1 0-1.5zm7.214 0a.75.75 0 0 1 0 1.5h-.201a.75.75 0 0 1 0-1.5zm7.214 0a.75.75 0 1 1 0 1.5h-.2a.75.75 0 0 1 0-1.5zm7.215 0a.75.75 0 0 1 0 1.5h-.201a.75.75 0 0 1 0-1.5zm7.214 0a.75.75 0 0 1 0 1.5h-.2a.75.75 0 0 1 0-1.5zm7.215 0a.75.75 0 0 1 0 1.5h-.201a.75.75 0 0 1 0-1.5zm7.214 0a.75.75 0 0 1 0 1.5h-.2a.75.75 0 0 1 0-1.5zm7.215 0a.75.75 0 0 1 0 1.5h-.2a.75.75 0 1 1 0-1.5zm7.214 0a.75.75 0 0 1 0 1.5h-.201a.75.75 0 0 1 0-1.5zm7.214 0a.75.75 0 1 1 0 1.5h-.2a.75.75 0 0 1 0-1.5zm7.215 0a.75.75 0 0 1 0 1.5h-.201a.75.75 0 0 1 0-1.5zm7.214 0a.75.75 0 0 1 0 1.5h-.2a.75.75 0 0 1 0-1.5zm7.215 0a.75.75 0 0 1 0 1.5h-.2a.75.75 0 0 1 0-1.5zm7.214 0a.75.75 0 0 1 0 1.5h-.2a.75.75 0 0 1 0-1.5zm7.215 0a.75.75 0 0 1 0 1.5h-.2a.75.75 0 1 1 0-1.5zm7.114 0v1.5h-.101a.75.75 0 0 1 0-1.5z"/><path fill="#46A758" d="M623.163 118.75a.75.75 0 0 1 0 1.5h-52.807a.75.75 0 0 1 0-1.5z"/><path fill="#F76191" d="M131.5 134.75a.75.75 0 0 1 0 1.5H77.67a.75.75 0 0 1 0-1.5z"/><path fill="#F76191" d="M541.248 134.75a.75.75 0 0 1 0 1.5H78.643a.75.75 0 0 1 0-1.5z" opacity=".09"/><path fill="#F76191" d="M110.36 134.75a.75.75 0 0 1 0 1.5h-.099v-1.5zm7.15 0a.75.75 0 0 1 0 1.5h-.198a.75.75 0 1 1 0-1.5zm7.149 0a.75.75 0 0 1 0 1.5h-.198a.75.75 0 0 1 0-1.5zm7.151 0a.75.75 0 0 1 0 1.5h-.199a.75.75 0 0 1 0-1.5zm7.149 0a.75.75 0 0 1 0 1.5h-.198a.75.75 0 0 1 0-1.5zm7.15 0a.75.75 0 0 1 0 1.5h-.199a.75.75 0 0 1 0-1.5zm7.15 0a.75.75 0 0 1 0 1.5h-.198a.75.75 0 1 1 0-1.5zm7.149 0a.75.75 0 0 1 0 1.5h-.198a.75.75 0 0 1 0-1.5zm7.151 0a.75.75 0 0 1 0 1.5h-.199a.75.75 0 0 1 0-1.5zm7.149 0a.75.75 0 0 1 0 1.5h-.198a.75.75 0 0 1 0-1.5zm7.15 0a.75.75 0 0 1 0 1.5h-.199a.75.75 0 0 1 0-1.5zm7.15 0a.75.75 0 0 1 0 1.5h-.198a.75.75 0 1 1 0-1.5zm7.15 0a.75.75 0 0 1 0 1.5h-.199a.75.75 0 0 1 0-1.5zm7.15 0a.75.75 0 0 1 0 1.5h-.199a.75.75 0 0 1 0-1.5zm7.149 0a.75.75 0 0 1 0 1.5h-.198a.75.75 0 0 1 0-1.5zm7.15 0a.75.75 0 1 1 0 1.5h-.199a.75.75 0 0 1 0-1.5zm7.15 0a.75.75 0 0 1 0 1.5h-.198a.75.75 0 1 1 0-1.5zm7.15 0a.75.75 0 0 1 0 1.5h-.199a.75.75 0 0 1 0-1.5zm7.15 0a.75.75 0 0 1 0 1.5h-.199a.75.75 0 0 1 0-1.5zm7.149 0a.75.75 0 0 1 0 1.5h-.198a.75.75 0 0 1 0-1.5zm7.15 0a.75.75 0 1 1 0 1.5h-.199a.75.75 0 0 1 0-1.5zm7.15 0a.75.75 0 0 1 0 1.5h-.198a.75.75 0 1 1 0-1.5zm7.15 0a.75.75 0 0 1 0 1.5h-.199a.75.75 0 0 1 0-1.5zm7.15 0a.75.75 0 0 1 0 1.5h-.199a.75.75 0 0 1 0-1.5zm7.149 0a.75.75 0 0 1 0 1.5h-.198a.75.75 0 0 1 0-1.5zm7.15 0a.75.75 0 1 1 0 1.5h-.199a.75.75 0 0 1 0-1.5zm7.15 0a.75.75 0 0 1 0 1.5h-.198a.75.75 0 1 1 0-1.5zm7.15 0a.75.75 0 0 1 0 1.5h-.199a.75.75 0 0 1 0-1.5zm7.15 0a.75.75 0 0 1 0 1.5h-.199a.75.75 0 0 1 0-1.5zm7.149 0a.75.75 0 0 1 0 1.5h-.198a.75.75 0 0 1 0-1.5zm7.15 0a.75.75 0 1 1 0 1.5h-.199a.75.75 0 0 1 0-1.5zm7.15 0a.75.75 0 0 1 0 1.5h-.198a.75.75 0 1 1 0-1.5zm7.15 0a.75.75 0 0 1 0 1.5h-.199a.75.75 0 0 1 0-1.5zm7.15 0a.75.75 0 0 1 0 1.5h-.199a.75.75 0 0 1 0-1.5zm7.149 0a.75.75 0 0 1 0 1.5h-.198a.75.75 0 0 1 0-1.5zm7.151 0a.75.75 0 0 1 0 1.5h-.2a.75.75 0 0 1 0-1.5zm7.149 0a.75.75 0 0 1 0 1.5h-.198a.75.75 0 1 1 0-1.5zm7.15 0a.75.75 0 0 1 0 1.5h-.199a.75.75 0 0 1 0-1.5zm7.15 0a.75.75 0 0 1 0 1.5h-.199a.75.75 0 0 1 0-1.5zm7.149 0a.75.75 0 0 1 0 1.5h-.198a.75.75 0 0 1 0-1.5zm7.151 0a.75.75 0 0 1 0 1.5h-.199a.75.75 0 0 1 0-1.5zm7.149 0a.75.75 0 0 1 0 1.5h-.198a.75.75 0 1 1 0-1.5zm7.15 0a.75.75 0 0 1 0 1.5h-.199a.75.75 0 0 1 0-1.5zm7.15 0a.75.75 0 0 1 0 1.5h-.198a.75.75 0 1 1 0-1.5zm7.149 0a.75.75 0 0 1 0 1.5h-.198a.75.75 0 0 1 0-1.5zm7.151 0a.75.75 0 0 1 0 1.5h-.199a.75.75 0 0 1 0-1.5zm7.149 0a.75.75 0 0 1 0 1.5h-.198a.75.75 0 0 1 0-1.5zm7.15 0a.75.75 0 0 1 0 1.5h-.199a.75.75 0 0 1 0-1.5zm7.15 0a.75.75 0 0 1 0 1.5h-.198a.75.75 0 1 1 0-1.5zm7.15 0a.75.75 0 0 1 0 1.5h-.199a.75.75 0 0 1 0-1.5zm7.15 0a.75.75 0 0 1 0 1.5h-.199a.75.75 0 0 1 0-1.5zm7.149 0a.75.75 0 0 1 0 1.5h-.198a.75.75 0 0 1 0-1.5zm7.15 0a.75.75 0 0 1 0 1.5h-.199a.75.75 0 0 1 0-1.5zm7.15 0a.75.75 0 0 1 0 1.5h-.198a.75.75 0 1 1 0-1.5zm7.15 0a.75.75 0 0 1 0 1.5h-.199a.75.75 0 0 1 0-1.5zm7.05 0v1.5h-.099a.75.75 0 0 1 0-1.5z"/><path fill="#F76191" d="M586.895 134.75a.75.75 0 0 1 0 1.5h-83.818a.75.75 0 0 1 0-1.5z"/><path fill="#EDEDED" d="M53.38 20.19h1.275L57.471 28h-1.034l-.78-2.222h-3.279L51.598 28h-1.035zm1.957 4.664-1.32-3.839-1.32 3.839zm5.318 3.278q-.804 0-1.408-.374a2.46 2.46 0 0 1-.935-1.067q-.33-.693-.33-1.606t.33-1.606.935-1.067q.604-.374 1.408-.374.67 0 1.188.242.528.231.858.693.33.45.429 1.089l-.968.066q-.1-.572-.506-.891-.396-.32-1.001-.319-.804 0-1.254.572-.451.572-.451 1.595t.45 1.595 1.255.572q.605 0 1-.33.407-.34.507-.99l.968.066q-.1.649-.43 1.133a2.26 2.26 0 0 1-.857.737 2.6 2.6 0 0 1-1.188.264M66.183 28q-.792 0-1.177-.363-.374-.363-.374-1.133v-5.698h.924v5.676q0 .385.165.55.177.154.55.154h.836V28zm-2.409-5.83h3.333v.814h-3.333zm4.411 0h.924V28h-.924zm-.022-1.991h.968v1.078h-.968zm1.962 1.991h1.012l1.694 4.884 1.694-4.884h1.012L73.414 28h-1.166zm8.523 5.962q-.814 0-1.42-.374a2.48 2.48 0 0 1-.934-1.056q-.32-.693-.32-1.617 0-.913.32-1.606.33-.693.924-1.067t1.386-.374q.759 0 1.342.363.583.352.902 1.045.33.693.33 1.65v.275h-4.235q.044.924.484 1.408.45.473 1.22.473.562 0 .925-.253.374-.264.528-.726l.99.077a2.4 2.4 0 0 1-.891 1.298q-.65.484-1.551.484m1.518-3.575q-.067-.814-.484-1.221-.407-.418-1.078-.418-.682 0-1.122.418-.429.419-.54 1.221z"/></svg>