<svg xmlns="http://www.w3.org/2000/svg" width="624" height="155" fill="none" viewBox="0 0 624 155"><path fill="#fff" d="M486 0h130a8 8 0 0 1 8 8v139a8 8 0 0 1-8 8H486z"/><path fill="#EBEBEB" d="M486 0h138zm138 155H486zm-138.5 0V0h1v155zM624 0v155z"/><path fill="#171717" d="M542.379 20.19h1.276l2.816 7.81h-1.034l-.781-2.222h-3.278L540.597 28h-1.034zm1.958 4.664-1.32-3.839-1.32 3.839zm5.318 3.278q-.804 0-1.408-.374a2.46 2.46 0 0 1-.935-1.067q-.33-.693-.33-1.606t.33-1.606a2.46 2.46 0 0 1 .935-1.067q.604-.374 1.408-.374.67 0 1.188.242.528.231.858.693.33.45.429 1.089l-.968.066q-.1-.572-.506-.891-.396-.32-1.001-.319-.804 0-1.254.572-.451.572-.451 1.595t.451 1.595 1.254.572q.605 0 1.001-.33.407-.34.506-.99l.968.066q-.099.649-.429 1.133a2.26 2.26 0 0 1-.858.737 2.6 2.6 0 0 1-1.188.264m5.528-.132q-.792 0-1.177-.363-.374-.363-.374-1.133v-5.698h.924v5.676q0 .385.165.55.177.154.55.154h.836V28zm-2.409-5.83h3.333v.814h-3.333zm4.411 0h.924V28h-.924zm-.022-1.991h.968v1.078h-.968zm1.962 1.991h1.012l1.694 4.884 1.694-4.884h1.012L562.414 28h-1.166zm8.523 5.962q-.815 0-1.419-.374a2.47 2.47 0 0 1-.935-1.056q-.32-.693-.319-1.617 0-.913.319-1.606.33-.693.924-1.067t1.386-.374q.759 0 1.342.363.582.352.902 1.045.33.693.33 1.65v.275h-4.235q.043.924.484 1.408.45.473 1.221.473.561 0 .924-.253.374-.264.528-.726l.99.077a2.4 2.4 0 0 1-.891 1.298q-.65.484-1.551.484m1.518-3.575q-.067-.814-.484-1.221-.408-.418-1.078-.418-.682 0-1.122.418-.43.419-.539 1.221z"/><path fill="#fff" d="M0 8a8 8 0 0 1 8-8h124v155H8a8 8 0 0 1-8-8z"/><path fill="#EBEBEB" d="M0 0h132zm132 155H0zM0 155V0zM132.5 0v155h-1V0z"/><path fill="#F2F2F2" d="M264 24c0-5.523 4.477-10 10-10h70c5.523 0 10 4.477 10 10s-4.477 10-10 10h-70c-5.523 0-10-4.477-10-10"/><path fill="#666" d="M270.886 22.17h.924V28h-.924zm-.022-1.991h.968v1.078h-.968zm4.668 7.953q-.748 0-1.309-.374a2.37 2.37 0 0 1-.858-1.056q-.297-.693-.297-1.617t.297-1.606q.297-.693.858-1.067t1.309-.374q.594 0 1.067.253.484.253.726.693V20.19h.924V28h-.836l-.033-.88a1.77 1.77 0 0 1-.737.748q-.495.264-1.111.264m.187-.88q.506 0 .869-.264t.55-.748.187-1.155-.187-1.155q-.187-.495-.55-.748-.352-.264-.869-.264-.77 0-1.232.583-.451.572-.451 1.584 0 1 .451 1.584.462.583 1.232.583m5.324.748q-.54 0-.847-.264-.297-.275-.297-.836v-6.71h.924v6.633q0 .176.088.275a.4.4 0 0 0 .275.088h.506V28zm4.001.132q-.815 0-1.419-.374a2.47 2.47 0 0 1-.935-1.056q-.32-.693-.319-1.617 0-.913.319-1.606.33-.693.924-1.067t1.386-.374q.759 0 1.342.363.582.352.902 1.045.33.693.33 1.65v.275h-4.235q.043.924.484 1.408.45.473 1.221.473.561 0 .924-.253.373-.264.528-.726l.99.077a2.4 2.4 0 0 1-.891 1.298q-.65.484-1.551.484m1.518-3.575q-.067-.814-.484-1.221-.408-.418-1.078-.418-.683 0-1.122.418-.43.419-.539 1.221zm4.725-.198h3.641v.869h-3.641zm7.754-2.189h.847l.033 1.485-.11-.099q.154-.748.66-1.133.517-.385 1.232-.385.957 0 1.463.616.506.615.506 1.595V28h-.924v-3.487q0-.825-.297-1.243t-.946-.418q-.693 0-1.122.44-.418.429-.418 1.221V28h-.924zm8.54 5.962q-.804 0-1.408-.374a2.47 2.47 0 0 1-.935-1.056q-.33-.693-.33-1.617t.33-1.606a2.46 2.46 0 0 1 .935-1.067q.604-.374 1.408-.374.791 0 1.397.374.605.374.935 1.067.33.682.33 1.606t-.33 1.617q-.33.683-.935 1.056-.606.375-1.397.374m0-.88q.802 0 1.243-.572.45-.583.451-1.595 0-1.013-.451-1.584-.44-.583-1.243-.583t-1.254.572-.451 1.595.451 1.595q.45.572 1.254.572m9.055.88q-.802 0-1.408-.374a2.47 2.47 0 0 1-.935-1.067q-.33-.693-.33-1.606t.33-1.606.935-1.067 1.408-.374q.672 0 1.188.242.528.231.858.693.33.45.429 1.089l-.968.066q-.099-.572-.506-.891-.395-.32-1.001-.319-.803 0-1.254.572t-.451 1.595.451 1.595 1.254.572q.606 0 1.001-.33.407-.34.506-.99l.968.066q-.099.649-.429 1.133a2.26 2.26 0 0 1-.858.737 2.6 2.6 0 0 1-1.188.264m3.621-7.942h.924v3.267l-.11-.022q.154-.705.649-1.045.495-.352 1.221-.352.924 0 1.43.605.517.605.517 1.606V28h-.924v-3.487q0-.836-.308-1.243-.297-.418-.913-.418-.726 0-1.144.44t-.418 1.232V28h-.924zm7.857 7.942q-.913 0-1.441-.418t-.528-1.166.44-1.177 1.397-.605l2.068-.385q0-.737-.352-1.1-.34-.363-1.034-.363-.594 0-.957.264-.352.264-.484.781l-.979-.077q.165-.847.803-1.342.65-.506 1.617-.506 1.111 0 1.705.627.605.627.605 1.749v2.409q0 .198.066.286.077.077.242.077h.231V28a1 1 0 0 1-.154.011 2 2 0 0 1-.198.011q-.605 0-.858-.286t-.253-.946l.11.022q-.11.561-.704.946-.594.375-1.342.374m.088-.814q.572 0 .99-.22.418-.232.638-.616.22-.396.22-.88v-.418l-1.892.352q-.572.099-.814.33-.231.22-.231.594 0 .407.286.638.286.22.803.22m4.355-5.148h.814l.044 1.474-.088-.033q.11-.737.473-1.089t.99-.352h.572v.88h-.561q-.44 0-.737.165-.287.154-.44.473-.143.32-.143.792V28h-.924zm5.938 7.612a3 3 0 0 1-1.133-.209 2.3 2.3 0 0 1-.847-.594 2.05 2.05 0 0 1-.462-.891l.968-.066q.144.44.484.66.342.22.99.22.804 0 1.221-.319.418-.32.418-.957v-.946a1.7 1.7 0 0 1-.682.737q-.45.275-1.023.275-.736 0-1.32-.352a2.54 2.54 0 0 1-.902-1.001 3.3 3.3 0 0 1-.319-1.474q0-.825.319-1.463.32-.649.88-1.001a2.37 2.37 0 0 1 1.298-.363q.617 0 1.1.286.495.285.693.77v-.924h.88v5.434q0 1.023-.682 1.595-.681.583-1.881.583m-.022-2.97q.495 0 .869-.231.375-.242.583-.682.21-.44.209-1.034.012-.593-.198-1.034a1.45 1.45 0 0 0-.583-.671 1.6 1.6 0 0 0-.88-.242q-.759 0-1.188.528-.429.518-.429 1.419 0 .902.429 1.43.441.517 1.188.517m6.512 1.32q-.815 0-1.419-.374a2.5 2.5 0 0 1-.935-1.056q-.32-.693-.319-1.617 0-.913.319-1.606.33-.693.924-1.067t1.386-.374q.759 0 1.342.363.583.352.902 1.045.33.693.33 1.65v.275h-4.235q.044.924.484 1.408.452.473 1.221.473.561 0 .924-.253.374-.264.528-.726l.99.077a2.4 2.4 0 0 1-.891 1.298q-.65.484-1.551.484m1.518-3.575q-.066-.814-.484-1.221-.407-.418-1.078-.418-.683 0-1.122.418-.43.419-.539 1.221z"/><path fill="#0070F3" d="M104.275 54.75a.75.75 0 1 1 0 1.5H1a.75.75 0 0 1 0-1.5z"/><path fill="#0070F3" d="M570.434 54.75a.75.75 0 0 1 0 1.5H17.351a.75.75 0 0 1 0-1.5z" opacity=".09"/><path fill="#0070F3" d="M115.376 54.75a.75.75 0 0 1 0 1.5h-.101v-1.5zm7.25 0a.75.75 0 0 1 0 1.5h-.202a.75.75 0 0 1 0-1.5zm7.249 0a.75.75 0 0 1 0 1.5h-.201a.75.75 0 0 1 0-1.5zm7.25 0a.75.75 0 0 1 0 1.5h-.202a.75.75 0 0 1 0-1.5zm7.249 0a.75.75 0 0 1 0 1.5h-.201a.75.75 0 0 1 0-1.5zm7.25 0a.75.75 0 0 1 0 1.5h-.202a.75.75 0 0 1 0-1.5zm7.249 0a.75.75 0 0 1 0 1.5h-.201a.75.75 0 0 1 0-1.5zm7.25 0a.75.75 0 0 1 0 1.5h-.202a.75.75 0 0 1 0-1.5zm7.249 0a.75.75 0 0 1 0 1.5h-.201a.75.75 0 0 1 0-1.5zm7.25 0a.75.75 0 0 1 0 1.5h-.202a.75.75 0 0 1 0-1.5zm7.249 0a.75.75 0 0 1 0 1.5h-.201a.75.75 0 0 1 0-1.5zm7.25 0a.75.75 0 0 1 0 1.5h-.201a.75.75 0 0 1 0-1.5zm7.249 0a.75.75 0 0 1 0 1.5h-.201a.75.75 0 0 1 0-1.5zm7.25 0a.75.75 0 0 1 0 1.5h-.201a.75.75 0 0 1 0-1.5zm7.249 0a.75.75 0 0 1 0 1.5h-.201a.75.75 0 0 1 0-1.5zm7.25 0a.75.75 0 0 1 0 1.5h-.201a.75.75 0 0 1 0-1.5zm7.249 0a.75.75 0 0 1 0 1.5h-.201a.75.75 0 0 1 0-1.5zm7.25 0a.75.75 0 0 1 0 1.5h-.201a.75.75 0 0 1 0-1.5zm7.249 0a.75.75 0 0 1 0 1.5h-.201a.75.75 0 0 1 0-1.5zm7.25 0a.75.75 0 0 1 0 1.5h-.201a.75.75 0 0 1 0-1.5zm7.249 0a.75.75 0 0 1 0 1.5h-.201a.75.75 0 0 1 0-1.5zm7.25 0a.75.75 0 0 1 0 1.5h-.201a.75.75 0 0 1 0-1.5zm7.249 0a.75.75 0 0 1 0 1.5h-.201a.75.75 0 0 1 0-1.5zm7.25 0a.75.75 0 0 1 0 1.5h-.201a.75.75 0 0 1 0-1.5zm7.249 0a.75.75 0 0 1 0 1.5h-.201a.75.75 0 0 1 0-1.5zm7.25 0a.75.75 0 0 1 0 1.5h-.201a.75.75 0 0 1 0-1.5zm7.249 0a.75.75 0 0 1 0 1.5h-.201a.75.75 0 0 1 0-1.5zm7.25 0a.75.75 0 0 1 0 1.5h-.201a.75.75 0 0 1 0-1.5zm7.249 0a.75.75 0 1 1 0 1.5h-.201a.75.75 0 0 1 0-1.5zm7.25 0a.75.75 0 0 1 0 1.5h-.201a.75.75 0 0 1 0-1.5zm7.249 0a.75.75 0 1 1 0 1.5h-.201a.75.75 0 0 1 0-1.5zm7.25 0a.75.75 0 0 1 0 1.5h-.201a.75.75 0 0 1 0-1.5zm7.249 0a.75.75 0 1 1 0 1.5h-.201a.75.75 0 0 1 0-1.5zm7.25 0a.75.75 0 0 1 0 1.5h-.201a.75.75 0 0 1 0-1.5zm7.249 0a.75.75 0 1 1 0 1.5h-.201a.75.75 0 0 1 0-1.5zm7.25 0a.75.75 0 0 1 0 1.5h-.201a.75.75 0 0 1 0-1.5zm7.249 0a.75.75 0 1 1 0 1.5h-.201a.75.75 0 0 1 0-1.5zm7.25 0a.75.75 0 1 1 0 1.5h-.201a.75.75 0 0 1 0-1.5zm7.249 0a.75.75 0 1 1 0 1.5h-.201a.75.75 0 0 1 0-1.5zm7.25 0a.75.75 0 1 1 0 1.5h-.201a.75.75 0 0 1 0-1.5zm7.249 0a.75.75 0 1 1 0 1.5h-.201a.75.75 0 0 1 0-1.5zm7.25 0a.75.75 0 1 1 0 1.5h-.201a.75.75 0 0 1 0-1.5zm7.25 0a.75.75 0 0 1 0 1.5h-.202a.75.75 0 0 1 0-1.5zm7.249 0a.75.75 0 1 1 0 1.5h-.201a.75.75 0 0 1 0-1.5zm7.25 0a.75.75 0 1 1 0 1.5h-.202a.75.75 0 0 1 0-1.5zm7.249 0a.75.75 0 1 1 0 1.5h-.201a.75.75 0 0 1 0-1.5zm7.25 0a.75.75 0 1 1 0 1.5h-.202a.75.75 0 0 1 0-1.5zm7.25 0a.75.75 0 0 1 0 1.5h-.202a.75.75 0 0 1 0-1.5zm7.25 0a.75.75 0 0 1 0 1.5h-.202a.75.75 0 0 1 0-1.5zm7.249 0a.75.75 0 0 1 0 1.5h-.202a.75.75 0 0 1 0-1.5zm7.25 0a.75.75 0 0 1 0 1.5h-.202a.75.75 0 0 1 0-1.5zm7.249 0a.75.75 0 0 1 0 1.5h-.202a.75.75 0 0 1 0-1.5zm7.25 0a.75.75 0 0 1 0 1.5h-.202a.75.75 0 0 1 0-1.5zm7.148 0v1.5h-.101a.75.75 0 0 1 0-1.5z"/><path fill="#0070F3" d="M607.529 54.75a.75.75 0 1 1 0 1.5H487.525a.75.75 0 0 1 0-1.5z"/><path fill="#FF990A" d="M105.546 70.75a.75.75 0 0 1 0 1.5H21.728a.75.75 0 0 1 0-1.5z"/><path fill="#FF990A" d="M536.87 70.75a.75.75 0 0 1 0 1.5H31.458a.75.75 0 0 1 0-1.5z" opacity=".09"/><path fill="#FF990A" d="M105.647 70.75a.75.75 0 1 1 0 1.5h-.1v-1.5zm7.218 0a.75.75 0 0 1 0 1.5h-.2a.75.75 0 0 1 0-1.5zm7.219 0a.75.75 0 0 1 0 1.5h-.2a.75.75 0 0 1 0-1.5zm7.219 0a.75.75 0 0 1 0 1.5h-.201a.75.75 0 0 1 0-1.5zm7.218 0a.75.75 0 0 1 0 1.5h-.201a.75.75 0 0 1 0-1.5zm7.218 0a.75.75 0 0 1 0 1.5h-.2a.75.75 0 0 1 0-1.5zm7.219 0a.75.75 0 0 1 0 1.5h-.2a.75.75 0 0 1 0-1.5zm7.219 0a.75.75 0 0 1 0 1.5h-.201a.75.75 0 0 1 0-1.5zm7.218 0a.75.75 0 0 1 0 1.5h-.201a.75.75 0 0 1 0-1.5zm7.218 0a.75.75 0 0 1 0 1.5h-.2a.75.75 0 0 1 0-1.5zm7.219 0a.75.75 0 0 1 0 1.5h-.2a.75.75 0 0 1 0-1.5zm7.219 0a.75.75 0 0 1 0 1.5h-.201a.75.75 0 0 1 0-1.5zm7.218 0a.75.75 0 0 1 0 1.5h-.201a.75.75 0 0 1 0-1.5zm7.218 0a.75.75 0 1 1 0 1.5h-.2a.75.75 0 0 1 0-1.5zm7.219 0a.75.75 0 0 1 0 1.5h-.201a.75.75 0 0 1 0-1.5zm7.218 0a.75.75 0 0 1 0 1.5h-.2a.75.75 0 1 1 0-1.5zm7.219 0a.75.75 0 0 1 0 1.5h-.201a.75.75 0 0 1 0-1.5zm7.218 0a.75.75 0 0 1 0 1.5h-.2a.75.75 0 0 1 0-1.5zm7.219 0a.75.75 0 0 1 0 1.5h-.201a.75.75 0 0 1 0-1.5zm7.218 0a.75.75 0 0 1 0 1.5h-.2a.75.75 0 1 1 0-1.5zm7.219 0a.75.75 0 0 1 0 1.5h-.201a.75.75 0 0 1 0-1.5zm7.218 0a.75.75 0 0 1 0 1.5h-.201a.75.75 0 0 1 0-1.5zm7.218 0a.75.75 0 0 1 0 1.5h-.2a.75.75 0 0 1 0-1.5zm7.219 0a.75.75 0 0 1 0 1.5h-.2a.75.75 0 1 1 0-1.5zm7.219 0a.75.75 0 0 1 0 1.5h-.201a.75.75 0 0 1 0-1.5zm7.218 0a.75.75 0 0 1 0 1.5h-.201a.75.75 0 0 1 0-1.5zm7.218 0a.75.75 0 0 1 0 1.5h-.2a.75.75 0 0 1 0-1.5zm7.219 0a.75.75 0 0 1 0 1.5h-.2a.75.75 0 1 1 0-1.5zm7.219 0a.75.75 0 0 1 0 1.5h-.202a.75.75 0 0 1 0-1.5zm7.218 0a.75.75 0 0 1 0 1.5h-.201a.75.75 0 0 1 0-1.5zm7.218 0a.75.75 0 0 1 0 1.5h-.2a.75.75 0 0 1 0-1.5zm7.219 0a.75.75 0 0 1 0 1.5h-.2a.75.75 0 0 1 0-1.5zm7.219 0a.75.75 0 0 1 0 1.5h-.201a.75.75 0 1 1 0-1.5zm7.217 0a.75.75 0 1 1 0 1.5h-.2a.75.75 0 0 1 0-1.5zm7.219 0a.75.75 0 0 1 0 1.5h-.2a.75.75 0 0 1 0-1.5zm7.219 0a.75.75 0 0 1 0 1.5h-.2a.75.75 0 0 1 0-1.5zm7.219 0a.75.75 0 0 1 0 1.5h-.201a.75.75 0 1 1 0-1.5zm7.217 0a.75.75 0 1 1 0 1.5h-.2a.75.75 0 0 1 0-1.5zm7.219 0a.75.75 0 0 1 0 1.5h-.2a.75.75 0 0 1 0-1.5zm7.219 0a.75.75 0 0 1 0 1.5h-.201a.75.75 0 0 1 0-1.5zm7.218 0a.75.75 0 0 1 0 1.5h-.2a.75.75 0 1 1 0-1.5zm7.218 0a.75.75 0 1 1 0 1.5h-.2a.75.75 0 0 1 0-1.5zm7.219 0a.75.75 0 0 1 0 1.5h-.2a.75.75 0 0 1 0-1.5zm7.219 0a.75.75 0 0 1 0 1.5h-.201a.75.75 0 0 1 0-1.5zm7.218 0a.75.75 0 0 1 0 1.5h-.2a.75.75 0 1 1 0-1.5zm7.219 0a.75.75 0 0 1 0 1.5h-.201a.75.75 0 0 1 0-1.5zm7.218 0a.75.75 0 0 1 0 1.5h-.201a.75.75 0 0 1 0-1.5zm7.218 0a.75.75 0 0 1 0 1.5h-.2a.75.75 0 0 1 0-1.5zm7.219 0a.75.75 0 0 1 0 1.5h-.2a.75.75 0 1 1 0-1.5zm7.219 0a.75.75 0 0 1 0 1.5h-.201a.75.75 0 0 1 0-1.5zm7.218 0a.75.75 0 0 1 0 1.5h-.201a.75.75 0 0 1 0-1.5zm7.218 0a.75.75 0 0 1 0 1.5h-.2a.75.75 0 0 1 0-1.5zm7.219 0a.75.75 0 0 1 0 1.5h-.2a.75.75 0 1 1 0-1.5zm7.219 0a.75.75 0 0 1 0 1.5h-.202a.75.75 0 0 1 0-1.5zm7.217 0a.75.75 0 1 1 0 1.5h-.2a.75.75 0 0 1 0-1.5zm7.219 0a.75.75 0 0 1 0 1.5h-.2a.75.75 0 0 1 0-1.5zm7.219 0a.75.75 0 0 1 0 1.5h-.2a.75.75 0 1 1 0-1.5zm7.118 0v1.5h-.101a.75.75 0 0 1 0-1.5z"/><path fill="#FF990A" d="M573.275 70.75a.75.75 0 0 1 0 1.5h-63.387a.75.75 0 1 1 0-1.5z"/><path fill="#8E4EC6" d="M108.465 86.75a.75.75 0 0 1 0 1.5h-84.79a.75.75 0 0 1 0-1.5z"/><path fill="#8E4EC6" d="M569.947 86.75a.75.75 0 0 1 0 1.5H25.62a.75.75 0 0 1 0-1.5z" opacity=".09"/><path fill="#8E4EC6" d="M108.565 86.75a.75.75 0 1 1 0 1.5h-.099v-1.5zm7.159 0a.75.75 0 0 1 0 1.5h-.2a.75.75 0 0 1 0-1.5zm7.158 0a.75.75 0 0 1 0 1.5h-.198a.75.75 0 1 1 0-1.5zm7.159 0a.75.75 0 0 1 0 1.5h-.199a.75.75 0 0 1 0-1.5zm7.158 0a.75.75 0 0 1 0 1.5H137a.75.75 0 0 1 0-1.5zm7.158 0a.75.75 0 1 1 0 1.5h-.198a.75.75 0 0 1 0-1.5zm7.16 0a.75.75 0 0 1 0 1.5h-.2a.75.75 0 0 1 0-1.5zm7.158 0a.75.75 0 0 1 0 1.5h-.199a.75.75 0 0 1 0-1.5zm7.158 0a.75.75 0 0 1 0 1.5h-.198a.75.75 0 0 1 0-1.5zm7.158 0a.75.75 0 0 1 0 1.5h-.198a.75.75 0 0 1 0-1.5zm7.159 0a.75.75 0 1 1 0 1.5h-.199a.75.75 0 0 1 0-1.5zm7.159 0a.75.75 0 0 1 0 1.5h-.2a.75.75 0 0 1 0-1.5zm7.158 0a.75.75 0 0 1 0 1.5h-.198a.75.75 0 1 1 0-1.5zm7.159 0a.75.75 0 0 1 0 1.5h-.199a.75.75 0 0 1 0-1.5zm7.158 0a.75.75 0 0 1 0 1.5h-.199a.75.75 0 0 1 0-1.5zm7.158 0a.75.75 0 1 1 0 1.5h-.198a.75.75 0 0 1 0-1.5zm7.16 0a.75.75 0 0 1 0 1.5h-.2a.75.75 0 0 1 0-1.5zm7.158 0a.75.75 0 0 1 0 1.5h-.199a.75.75 0 1 1 0-1.5zm7.158 0a.75.75 0 0 1 0 1.5h-.198a.75.75 0 0 1 0-1.5zm7.158 0a.75.75 0 0 1 0 1.5h-.198a.75.75 0 0 1 0-1.5zm7.159 0a.75.75 0 0 1 0 1.5h-.199a.75.75 0 0 1 0-1.5zm7.159 0a.75.75 0 0 1 0 1.5h-.2a.75.75 0 0 1 0-1.5zm7.158 0a.75.75 0 0 1 0 1.5h-.198a.75.75 0 1 1 0-1.5zm7.159 0a.75.75 0 0 1 0 1.5h-.199a.75.75 0 0 1 0-1.5zm7.158 0a.75.75 0 0 1 0 1.5h-.199a.75.75 0 0 1 0-1.5zm7.158 0a.75.75 0 1 1 0 1.5h-.198a.75.75 0 0 1 0-1.5zm7.16 0a.75.75 0 0 1 0 1.5h-.2a.75.75 0 0 1 0-1.5zm7.158 0a.75.75 0 0 1 0 1.5h-.199a.75.75 0 1 1 0-1.5zm7.158 0a.75.75 0 0 1 0 1.5h-.198a.75.75 0 1 1 0-1.5zm7.158 0a.75.75 0 0 1 0 1.5h-.198a.75.75 0 0 1 0-1.5zm7.159 0a.75.75 0 0 1 0 1.5h-.199a.75.75 0 0 1 0-1.5zm7.159 0a.75.75 0 0 1 0 1.5h-.2a.75.75 0 0 1 0-1.5zm7.158 0a.75.75 0 0 1 0 1.5h-.199a.75.75 0 0 1 0-1.5zm7.159 0a.75.75 0 0 1 0 1.5h-.199a.75.75 0 1 1 0-1.5zm7.158 0a.75.75 0 0 1 0 1.5h-.199a.75.75 0 0 1 0-1.5zm7.158 0a.75.75 0 1 1 0 1.5h-.198a.75.75 0 0 1 0-1.5zm7.159 0a.75.75 0 0 1 0 1.5h-.199a.75.75 0 0 1 0-1.5zm7.159 0a.75.75 0 0 1 0 1.5h-.2a.75.75 0 0 1 0-1.5zm7.158 0a.75.75 0 0 1 0 1.5h-.198a.75.75 0 1 1 0-1.5zm7.158 0a.75.75 0 0 1 0 1.5h-.198a.75.75 0 0 1 0-1.5zm7.159 0a.75.75 0 0 1 0 1.5h-.199a.75.75 0 0 1 0-1.5zm7.158 0a.75.75 0 1 1 0 1.5h-.199a.75.75 0 0 1 0-1.5zm7.159 0a.75.75 0 0 1 0 1.5h-.199a.75.75 0 0 1 0-1.5zm7.159 0a.75.75 0 0 1 0 1.5h-.199a.75.75 0 1 1 0-1.5zm7.158 0a.75.75 0 0 1 0 1.5h-.199a.75.75 0 0 1 0-1.5zm7.158 0a.75.75 0 0 1 0 1.5h-.198a.75.75 0 0 1 0-1.5zm7.159 0a.75.75 0 1 1 0 1.5h-.199a.75.75 0 0 1 0-1.5zm7.159 0a.75.75 0 0 1 0 1.5h-.2a.75.75 0 0 1 0-1.5zm7.158 0a.75.75 0 0 1 0 1.5h-.198a.75.75 0 1 1 0-1.5zm7.159 0a.75.75 0 0 1 0 1.5h-.199a.75.75 0 0 1 0-1.5zm7.158 0a.75.75 0 0 1 0 1.5h-.199a.75.75 0 0 1 0-1.5zm7.158 0a.75.75 0 1 1 0 1.5h-.198a.75.75 0 0 1 0-1.5zm7.16 0a.75.75 0 0 1 0 1.5h-.2a.75.75 0 0 1 0-1.5zm7.158 0a.75.75 0 0 1 0 1.5h-.199a.75.75 0 1 1 0-1.5zm7.158 0a.75.75 0 0 1 0 1.5h-.198a.75.75 0 0 1 0-1.5zm7.158 0a.75.75 0 0 1 0 1.5h-.198a.75.75 0 0 1 0-1.5zm7.159 0a.75.75 0 1 1 0 1.5h-.199a.75.75 0 0 1 0-1.5zm7.059 0v1.5h-.1a.75.75 0 0 1 0-1.5z"/><path fill="#8E4EC6" d="M602.948 86.75a.75.75 0 0 1 0 1.5h-93.06a.75.75 0 1 1 0-1.5z"/><path fill="#DA3036" d="M91.29 102.75a.75.75 0 0 1 0 1.5H56.753a.75.75 0 0 1 0-1.5z"/><path fill="#DA3036" d="M516.439 102.75a.75.75 0 1 1 0 1.5H58.212a.75.75 0 0 1 0-1.5z" opacity=".09"/><path fill="#DA3036" d="M91.877 102.75a.75.75 0 0 1 0 1.5h-.1v-1.5zm7.215 0a.75.75 0 0 1 0 1.5h-.2a.75.75 0 0 1 0-1.5zm7.216 0a.75.75 0 0 1 0 1.5h-.201a.75.75 0 0 1 0-1.5zm7.215 0a.75.75 0 1 1 0 1.5h-.2a.75.75 0 0 1 0-1.5zm7.216 0a.75.75 0 0 1 0 1.5h-.2a.75.75 0 0 1 0-1.5zm7.216 0a.75.75 0 0 1 0 1.5h-.2a.75.75 0 0 1 0-1.5zm7.216 0a.75.75 0 0 1 0 1.5h-.201a.75.75 0 0 1 0-1.5zm7.215 0a.75.75 0 0 1 0 1.5h-.2a.75.75 0 1 1 0-1.5zm7.216 0a.75.75 0 0 1 0 1.5h-.201a.75.75 0 0 1 0-1.5zm7.215 0a.75.75 0 1 1 0 1.5h-.2a.75.75 0 0 1 0-1.5zm7.216 0a.75.75 0 0 1 0 1.5h-.2a.75.75 0 0 1 0-1.5zm7.216 0a.75.75 0 0 1 0 1.5h-.2a.75.75 0 0 1 0-1.5zm7.216 0a.75.75 0 0 1 0 1.5h-.201a.75.75 0 0 1 0-1.5zm7.215 0a.75.75 0 0 1 0 1.5h-.201a.75.75 0 0 1 0-1.5zm7.216 0a.75.75 0 0 1 0 1.5h-.201a.75.75 0 0 1 0-1.5zm7.215 0a.75.75 0 1 1 0 1.5h-.2a.75.75 0 0 1 0-1.5zm7.216 0a.75.75 0 0 1 0 1.5h-.2a.75.75 0 0 1 0-1.5zm7.216 0a.75.75 0 0 1 0 1.5h-.201a.75.75 0 0 1 0-1.5zm7.216 0a.75.75 0 0 1 0 1.5h-.201a.75.75 0 0 1 0-1.5zm7.215 0a.75.75 0 0 1 0 1.5h-.201a.75.75 0 0 1 0-1.5zm7.215 0a.75.75 0 1 1 0 1.5h-.2a.75.75 0 0 1 0-1.5zm7.216 0a.75.75 0 0 1 0 1.5h-.2a.75.75 0 0 1 0-1.5zm7.216 0a.75.75 0 0 1 0 1.5h-.2a.75.75 0 0 1 0-1.5zm7.216 0a.75.75 0 0 1 0 1.5h-.201a.75.75 0 0 1 0-1.5zm7.216 0a.75.75 0 0 1 0 1.5h-.201a.75.75 0 1 1 0-1.5zm7.215 0a.75.75 0 0 1 0 1.5h-.201a.75.75 0 0 1 0-1.5zm7.215 0a.75.75 0 1 1 0 1.5h-.2a.75.75 0 0 1 0-1.5zm7.216 0a.75.75 0 0 1 0 1.5h-.2a.75.75 0 0 1 0-1.5zm7.216 0a.75.75 0 0 1 0 1.5h-.2a.75.75 0 0 1 0-1.5zm7.216 0a.75.75 0 0 1 0 1.5h-.201a.75.75 0 0 1 0-1.5zm7.216 0a.75.75 0 0 1 0 1.5h-.201a.75.75 0 1 1 0-1.5zm7.215 0a.75.75 0 0 1 0 1.5h-.201a.75.75 0 0 1 0-1.5zm7.215 0a.75.75 0 1 1 0 1.5h-.2a.75.75 0 0 1 0-1.5zm7.216 0a.75.75 0 0 1 0 1.5h-.2a.75.75 0 0 1 0-1.5zm7.216 0a.75.75 0 0 1 0 1.5h-.2a.75.75 0 0 1 0-1.5zm7.216 0a.75.75 0 0 1 0 1.5h-.201a.75.75 0 0 1 0-1.5zm7.215 0a.75.75 0 0 1 0 1.5h-.201a.75.75 0 0 1 0-1.5zm7.215 0a.75.75 0 1 1 0 1.5h-.2a.75.75 0 0 1 0-1.5zm7.216 0a.75.75 0 1 1 0 1.5h-.2a.75.75 0 0 1 0-1.5zm7.216 0a.75.75 0 0 1 0 1.5h-.2a.75.75 0 0 1 0-1.5zm7.216 0a.75.75 0 0 1 0 1.5h-.2a.75.75 0 0 1 0-1.5zm7.216 0a.75.75 0 0 1 0 1.5h-.201a.75.75 0 0 1 0-1.5zm7.216 0a.75.75 0 0 1 0 1.5h-.202a.75.75 0 0 1 0-1.5zm7.214 0a.75.75 0 1 1 0 1.5h-.2a.75.75 0 0 1 0-1.5zm7.216 0a.75.75 0 0 1 0 1.5h-.2a.75.75 0 0 1 0-1.5zm7.216 0a.75.75 0 0 1 0 1.5h-.2a.75.75 0 0 1 0-1.5zm7.216 0a.75.75 0 0 1 0 1.5h-.2a.75.75 0 1 1 0-1.5zm7.216 0a.75.75 0 0 1 0 1.5h-.201a.75.75 0 0 1 0-1.5zm7.216 0a.75.75 0 0 1 0 1.5h-.202a.75.75 0 0 1 0-1.5zm7.214 0a.75.75 0 1 1 0 1.5h-.2a.75.75 0 0 1 0-1.5zm7.216 0a.75.75 0 0 1 0 1.5h-.2a.75.75 0 0 1 0-1.5zm7.216 0a.75.75 0 0 1 0 1.5h-.2a.75.75 0 0 1 0-1.5zm7.216 0a.75.75 0 0 1 0 1.5h-.2a.75.75 0 1 1 0-1.5zm7.216 0a.75.75 0 0 1 0 1.5h-.201a.75.75 0 0 1 0-1.5zm7.215 0a.75.75 0 1 1 0 1.5h-.201a.75.75 0 0 1 0-1.5zm7.216 0a.75.75 0 0 1 0 1.5h-.201a.75.75 0 0 1 0-1.5zm7.215 0a.75.75 0 0 1 0 1.5h-.2a.75.75 0 0 1 0-1.5zm7.216 0a.75.75 0 0 1 0 1.5h-.2a.75.75 0 0 1 0-1.5zm7.216 0a.75.75 0 0 1 0 1.5h-.2a.75.75 0 1 1 0-1.5zm7.115 0v1.5h-.1a.75.75 0 0 1 0-1.5z"/><path fill="#DA3036" d="M549.439 102.75a.75.75 0 1 1 0 1.5h-62.551a.75.75 0 1 1 0-1.5z"/><path fill="#46A758" d="M115.275 118.75a.75.75 0 0 1 0 1.5H62.59a.75.75 0 0 1 0-1.5z"/><path fill="#46A758" d="M572.381 118.75a.75.75 0 0 1 0 1.5H65.023a.75.75 0 0 1 0-1.5z" opacity=".09"/><path fill="#46A758" d="M115.376 118.75a.75.75 0 0 1 0 1.5h-.101v-1.5zm7.214 0a.75.75 0 0 1 0 1.5h-.2a.75.75 0 1 1 0-1.5zm7.215 0a.75.75 0 0 1 0 1.5h-.201a.75.75 0 0 1 0-1.5zm7.214 0a.75.75 0 0 1 0 1.5h-.201a.75.75 0 0 1 0-1.5zm7.214 0a.75.75 0 1 1 0 1.5h-.2a.75.75 0 0 1 0-1.5zm7.215 0a.75.75 0 0 1 0 1.5h-.201a.75.75 0 0 1 0-1.5zm7.214 0a.75.75 0 0 1 0 1.5h-.2a.75.75 0 0 1 0-1.5zm7.215 0a.75.75 0 0 1 0 1.5h-.2a.75.75 0 0 1 0-1.5zm7.214 0a.75.75 0 0 1 0 1.5h-.2a.75.75 0 1 1 0-1.5zm7.215 0a.75.75 0 0 1 0 1.5h-.201a.75.75 0 0 1 0-1.5zm7.215 0a.75.75 0 0 1 0 1.5h-.202a.75.75 0 0 1 0-1.5zm7.213 0a.75.75 0 1 1 0 1.5h-.2a.75.75 0 0 1 0-1.5zm7.215 0a.75.75 0 0 1 0 1.5h-.2a.75.75 0 0 1 0-1.5zm7.214 0a.75.75 0 0 1 0 1.5h-.2a.75.75 0 0 1 0-1.5zm7.215 0a.75.75 0 0 1 0 1.5h-.2a.75.75 0 0 1 0-1.5zm7.215 0a.75.75 0 0 1 0 1.5h-.201a.75.75 0 0 1 0-1.5zm7.214 0a.75.75 0 0 1 0 1.5h-.201a.75.75 0 0 1 0-1.5zm7.214 0a.75.75 0 1 1 0 1.5h-.201a.75.75 0 0 1 0-1.5zm7.214 0a.75.75 0 1 1 0 1.5h-.2a.75.75 0 0 1 0-1.5zm7.215 0a.75.75 0 0 1 0 1.5h-.2a.75.75 0 0 1 0-1.5zm7.214 0a.75.75 0 0 1 0 1.5h-.2a.75.75 0 0 1 0-1.5zm7.215 0a.75.75 0 0 1 0 1.5h-.2a.75.75 0 1 1 0-1.5zm7.215 0a.75.75 0 0 1 0 1.5h-.201a.75.75 0 0 1 0-1.5zm7.214 0a.75.75 0 0 1 0 1.5h-.201a.75.75 0 0 1 0-1.5zm7.214 0a.75.75 0 1 1 0 1.5h-.2a.75.75 0 0 1 0-1.5zm7.214 0a.75.75 0 1 1 0 1.5h-.2a.75.75 0 0 1 0-1.5zm7.215 0a.75.75 0 0 1 0 1.5h-.2a.75.75 0 0 1 0-1.5zm7.215 0a.75.75 0 0 1 0 1.5h-.201a.75.75 0 0 1 0-1.5zm7.214 0a.75.75 0 0 1 0 1.5h-.2a.75.75 0 1 1 0-1.5zm7.215 0a.75.75 0 0 1 0 1.5h-.2a.75.75 0 1 1 0-1.5zm7.214 0a.75.75 0 0 1 0 1.5h-.201a.75.75 0 0 1 0-1.5zm7.214 0a.75.75 0 1 1 0 1.5h-.2a.75.75 0 0 1 0-1.5zm7.215 0a.75.75 0 0 1 0 1.5h-.201a.75.75 0 0 1 0-1.5zm7.214 0a.75.75 0 0 1 0 1.5h-.2a.75.75 0 0 1 0-1.5zm7.215 0a.75.75 0 0 1 0 1.5h-.2a.75.75 0 0 1 0-1.5zm7.214 0a.75.75 0 0 1 0 1.5h-.2a.75.75 0 0 1 0-1.5zm7.215 0a.75.75 0 0 1 0 1.5h-.2a.75.75 0 1 1 0-1.5zm7.215 0a.75.75 0 0 1 0 1.5h-.202a.75.75 0 0 1 0-1.5zm7.213 0a.75.75 0 1 1 0 1.5h-.2a.75.75 0 0 1 0-1.5zm7.215 0a.75.75 0 0 1 0 1.5h-.2a.75.75 0 0 1 0-1.5zm7.214 0a.75.75 0 0 1 0 1.5h-.2a.75.75 0 0 1 0-1.5zm7.215 0a.75.75 0 0 1 0 1.5h-.2a.75.75 0 0 1 0-1.5zm7.215 0a.75.75 0 0 1 0 1.5h-.201a.75.75 0 0 1 0-1.5zm7.214 0a.75.75 0 0 1 0 1.5h-.201a.75.75 0 0 1 0-1.5zm7.215 0a.75.75 0 0 1 0 1.5h-.201a.75.75 0 0 1 0-1.5zm7.213 0a.75.75 0 1 1 0 1.5h-.2a.75.75 0 0 1 0-1.5zm7.215 0a.75.75 0 0 1 0 1.5h-.2a.75.75 0 0 1 0-1.5zm7.215 0a.75.75 0 0 1 0 1.5h-.201a.75.75 0 0 1 0-1.5zm7.214 0a.75.75 0 0 1 0 1.5h-.2a.75.75 0 0 1 0-1.5zm7.215 0a.75.75 0 0 1 0 1.5h-.2a.75.75 0 1 1 0-1.5zm7.214 0a.75.75 0 0 1 0 1.5h-.201a.75.75 0 0 1 0-1.5zm7.214 0a.75.75 0 1 1 0 1.5h-.2a.75.75 0 0 1 0-1.5zm7.215 0a.75.75 0 0 1 0 1.5h-.201a.75.75 0 0 1 0-1.5zm7.214 0a.75.75 0 0 1 0 1.5h-.2a.75.75 0 0 1 0-1.5zm7.215 0a.75.75 0 0 1 0 1.5h-.201a.75.75 0 0 1 0-1.5zm7.214 0a.75.75 0 0 1 0 1.5h-.2a.75.75 0 0 1 0-1.5zm7.215 0a.75.75 0 0 1 0 1.5h-.2a.75.75 0 1 1 0-1.5zm7.214 0a.75.75 0 0 1 0 1.5h-.201a.75.75 0 0 1 0-1.5zm7.214 0a.75.75 0 1 1 0 1.5h-.2a.75.75 0 0 1 0-1.5zm7.215 0a.75.75 0 0 1 0 1.5h-.201a.75.75 0 0 1 0-1.5zm7.214 0a.75.75 0 0 1 0 1.5h-.2a.75.75 0 0 1 0-1.5zm7.215 0a.75.75 0 0 1 0 1.5h-.2a.75.75 0 0 1 0-1.5zm7.214 0a.75.75 0 0 1 0 1.5h-.2a.75.75 0 0 1 0-1.5zm7.215 0a.75.75 0 0 1 0 1.5h-.2a.75.75 0 1 1 0-1.5zm7.114 0v1.5h-.101a.75.75 0 0 1 0-1.5z"/><path fill="#46A758" d="M623.163 118.75a.75.75 0 0 1 0 1.5h-52.807a.75.75 0 0 1 0-1.5z"/><path fill="#C01B5D" d="M131.5 134.75a.75.75 0 0 1 0 1.5H77.67a.75.75 0 0 1 0-1.5z"/><path fill="#C01B5D" d="M541.248 134.75a.75.75 0 0 1 0 1.5H78.643a.75.75 0 0 1 0-1.5z" opacity=".09"/><path fill="#C01B5D" d="M110.36 134.75a.75.75 0 0 1 0 1.5h-.099v-1.5zm7.15 0a.75.75 0 0 1 0 1.5h-.198a.75.75 0 1 1 0-1.5zm7.149 0a.75.75 0 0 1 0 1.5h-.198a.75.75 0 0 1 0-1.5zm7.151 0a.75.75 0 0 1 0 1.5h-.199a.75.75 0 0 1 0-1.5zm7.149 0a.75.75 0 0 1 0 1.5h-.198a.75.75 0 0 1 0-1.5zm7.15 0a.75.75 0 0 1 0 1.5h-.199a.75.75 0 0 1 0-1.5zm7.15 0a.75.75 0 0 1 0 1.5h-.198a.75.75 0 1 1 0-1.5zm7.149 0a.75.75 0 0 1 0 1.5h-.198a.75.75 0 0 1 0-1.5zm7.151 0a.75.75 0 0 1 0 1.5h-.199a.75.75 0 0 1 0-1.5zm7.149 0a.75.75 0 0 1 0 1.5h-.198a.75.75 0 0 1 0-1.5zm7.15 0a.75.75 0 0 1 0 1.5h-.199a.75.75 0 0 1 0-1.5zm7.15 0a.75.75 0 0 1 0 1.5h-.198a.75.75 0 1 1 0-1.5zm7.15 0a.75.75 0 0 1 0 1.5h-.199a.75.75 0 0 1 0-1.5zm7.15 0a.75.75 0 0 1 0 1.5h-.199a.75.75 0 0 1 0-1.5zm7.149 0a.75.75 0 0 1 0 1.5h-.198a.75.75 0 0 1 0-1.5zm7.15 0a.75.75 0 1 1 0 1.5h-.199a.75.75 0 0 1 0-1.5zm7.15 0a.75.75 0 0 1 0 1.5h-.198a.75.75 0 1 1 0-1.5zm7.15 0a.75.75 0 0 1 0 1.5h-.199a.75.75 0 0 1 0-1.5zm7.15 0a.75.75 0 0 1 0 1.5h-.199a.75.75 0 0 1 0-1.5zm7.149 0a.75.75 0 0 1 0 1.5h-.198a.75.75 0 0 1 0-1.5zm7.15 0a.75.75 0 1 1 0 1.5h-.199a.75.75 0 0 1 0-1.5zm7.15 0a.75.75 0 0 1 0 1.5h-.198a.75.75 0 1 1 0-1.5zm7.15 0a.75.75 0 0 1 0 1.5h-.199a.75.75 0 0 1 0-1.5zm7.15 0a.75.75 0 0 1 0 1.5h-.199a.75.75 0 0 1 0-1.5zm7.149 0a.75.75 0 0 1 0 1.5h-.198a.75.75 0 0 1 0-1.5zm7.15 0a.75.75 0 1 1 0 1.5h-.199a.75.75 0 0 1 0-1.5zm7.15 0a.75.75 0 0 1 0 1.5h-.198a.75.75 0 1 1 0-1.5zm7.15 0a.75.75 0 0 1 0 1.5h-.199a.75.75 0 0 1 0-1.5zm7.15 0a.75.75 0 0 1 0 1.5h-.199a.75.75 0 0 1 0-1.5zm7.149 0a.75.75 0 0 1 0 1.5h-.198a.75.75 0 0 1 0-1.5zm7.15 0a.75.75 0 1 1 0 1.5h-.199a.75.75 0 0 1 0-1.5zm7.15 0a.75.75 0 0 1 0 1.5h-.198a.75.75 0 1 1 0-1.5zm7.15 0a.75.75 0 0 1 0 1.5h-.199a.75.75 0 0 1 0-1.5zm7.15 0a.75.75 0 0 1 0 1.5h-.199a.75.75 0 0 1 0-1.5zm7.149 0a.75.75 0 0 1 0 1.5h-.198a.75.75 0 0 1 0-1.5zm7.151 0a.75.75 0 0 1 0 1.5h-.2a.75.75 0 0 1 0-1.5zm7.149 0a.75.75 0 0 1 0 1.5h-.198a.75.75 0 1 1 0-1.5zm7.15 0a.75.75 0 0 1 0 1.5h-.199a.75.75 0 0 1 0-1.5zm7.15 0a.75.75 0 0 1 0 1.5h-.199a.75.75 0 0 1 0-1.5zm7.149 0a.75.75 0 0 1 0 1.5h-.198a.75.75 0 0 1 0-1.5zm7.151 0a.75.75 0 0 1 0 1.5h-.199a.75.75 0 0 1 0-1.5zm7.149 0a.75.75 0 0 1 0 1.5h-.198a.75.75 0 1 1 0-1.5zm7.15 0a.75.75 0 0 1 0 1.5h-.199a.75.75 0 0 1 0-1.5zm7.15 0a.75.75 0 0 1 0 1.5h-.198a.75.75 0 1 1 0-1.5zm7.149 0a.75.75 0 0 1 0 1.5h-.198a.75.75 0 0 1 0-1.5zm7.151 0a.75.75 0 0 1 0 1.5h-.199a.75.75 0 0 1 0-1.5zm7.149 0a.75.75 0 0 1 0 1.5h-.198a.75.75 0 0 1 0-1.5zm7.15 0a.75.75 0 0 1 0 1.5h-.199a.75.75 0 0 1 0-1.5zm7.15 0a.75.75 0 0 1 0 1.5h-.198a.75.75 0 1 1 0-1.5zm7.15 0a.75.75 0 0 1 0 1.5h-.199a.75.75 0 0 1 0-1.5zm7.15 0a.75.75 0 0 1 0 1.5h-.199a.75.75 0 0 1 0-1.5zm7.149 0a.75.75 0 0 1 0 1.5h-.198a.75.75 0 0 1 0-1.5zm7.15 0a.75.75 0 0 1 0 1.5h-.199a.75.75 0 0 1 0-1.5zm7.15 0a.75.75 0 0 1 0 1.5h-.198a.75.75 0 1 1 0-1.5zm7.15 0a.75.75 0 0 1 0 1.5h-.199a.75.75 0 0 1 0-1.5zm7.05 0v1.5h-.099a.75.75 0 0 1 0-1.5z"/><path fill="#C01B5D" d="M586.895 134.75a.75.75 0 0 1 0 1.5h-83.818a.75.75 0 0 1 0-1.5z"/><path fill="#171717" d="M53.38 20.19h1.275L57.471 28h-1.034l-.78-2.222h-3.279L51.598 28h-1.035zm1.957 4.664-1.32-3.839-1.32 3.839zm5.318 3.278q-.804 0-1.408-.374a2.46 2.46 0 0 1-.935-1.067q-.33-.693-.33-1.606t.33-1.606.935-1.067q.604-.374 1.408-.374.67 0 1.188.242.528.231.858.693.33.45.429 1.089l-.968.066q-.1-.572-.506-.891-.396-.32-1.001-.319-.804 0-1.254.572-.451.572-.451 1.595t.45 1.595 1.255.572q.605 0 1-.33.407-.34.507-.99l.968.066q-.1.649-.43 1.133a2.26 2.26 0 0 1-.857.737 2.6 2.6 0 0 1-1.188.264M66.183 28q-.792 0-1.177-.363-.374-.363-.374-1.133v-5.698h.924v5.676q0 .385.165.55.177.154.55.154h.836V28zm-2.409-5.83h3.333v.814h-3.333zm4.411 0h.924V28h-.924zm-.022-1.991h.968v1.078h-.968zm1.962 1.991h1.012l1.694 4.884 1.694-4.884h1.012L73.414 28h-1.166zm8.523 5.962q-.814 0-1.42-.374a2.48 2.48 0 0 1-.934-1.056q-.32-.693-.32-1.617 0-.913.32-1.606.33-.693.924-1.067t1.386-.374q.759 0 1.342.363.583.352.902 1.045.33.693.33 1.65v.275h-4.235q.044.924.484 1.408.45.473 1.22.473.562 0 .925-.253.374-.264.528-.726l.99.077a2.4 2.4 0 0 1-.891 1.298q-.65.484-1.551.484m1.518-3.575q-.067-.814-.484-1.221-.407-.418-1.078-.418-.682 0-1.122.418-.429.419-.54 1.221z"/></svg>