<svg xmlns="http://www.w3.org/2000/svg" width="350" height="59" fill="none" viewBox="0 0 350 59"><g clip-path="url(#hashnode__a)"><path fill="white" fill-rule="evenodd" d="M4.04 19.02a13.05 13.05 0 0 0 0 18.89L19.66 53a14.14 14.14 0 0 0 19.53 0l15.62-15.1a13.05 13.05 0 0 0 0-18.89L39.2 3.92a14.14 14.14 0 0 0-19.53 0zm32.22 16.06a9.13 9.13 0 0 0 0-13.22 9.9 9.9 0 0 0-13.67 0 9.13 9.13 0 0 0 0 13.22 9.9 9.9 0 0 0 13.67 0" clip-rule="evenodd" style="fill:white;fill-opacity:1;"/><path fill="white" d="M82.13 38.56c.02-4.2 2.68-6.67 6.5-6.67 3.8 0 6.04 2.36 6.02 6.37v19.17H104V36.65c.03-7.65-4.63-12.28-11.66-12.28-5.12 0-8.54 2.33-10.08 6.18h-.4V13.91h-9.1v43.52h9.37zm36.39 19.48c4.98 0 8.21-2.1 9.86-5.14h.26v4.53h8.88V35.42c0-7.78-6.81-11.05-14.33-11.05-8.08 0-13.4 3.74-14.7 9.69l8.66.68c.64-2.17 2.64-3.76 6-3.76 3.18 0 5 1.55 5 4.22v.13c0 2.1-2.3 2.38-8.16 2.93-6.68.6-12.68 2.77-12.68 10.05 0 6.46 4.77 9.73 11.2 9.73m2.67-6.24c-2.87 0-4.94-1.3-4.94-3.78 0-2.55 2.18-3.8 5.47-4.25 2.05-.28 5.38-.75 6.5-1.47v3.46c0 3.42-2.92 6.04-7.03 6.04m49.18-17.7c-.83-6.01-5.84-9.73-14.36-9.73-8.63 0-14.32 3.86-14.3 10.15-.02 4.89 3.16 8.06 9.75 9.33l5.84 1.13c2.95.57 4.29 1.61 4.33 3.25-.04 1.93-2.22 3.31-5.49 3.31-3.34 0-5.56-1.38-6.13-4.03l-9.2.46c.88 6.25 6.37 10.1 15.3 10.1 8.75 0 15.01-4.32 15.03-10.76-.02-4.71-3.2-7.54-9.75-8.83l-6.1-1.2c-3.15-.65-4.31-1.7-4.29-3.27-.02-1.95 2.26-3.23 5.16-3.23 3.25 0 5.19 1.73 5.65 3.83zm13.55 4.46c.02-4.2 2.68-6.67 6.5-6.67 3.8 0 6.04 2.36 6.02 6.37v19.17h9.35V36.65c.03-7.65-4.63-12.28-11.66-12.28-5.12 0-8.54 2.33-10.08 6.18h-.4V13.91h-9.09v43.52h9.36zm36.12 0c.03-4.2 2.62-6.67 6.4-6.67 3.75 0 6.01 2.38 6 6.37v19.17h9.35V36.65c0-7.6-4.61-12.28-11.64-12.28-5.01 0-8.64 2.38-10.15 6.18h-.4v-5.76h-8.91v32.64h9.35zm41.9 19.5c10.23 0 16.6-6.77 16.6-16.82 0-10.12-6.37-16.87-16.6-16.87s-16.61 6.75-16.61 16.87c0 10.05 6.37 16.83 16.6 16.83m.04-7c-4.73 0-7.14-4.2-7.14-9.89s2.41-9.9 7.14-9.9c4.63 0 7.05 4.21 7.05 9.9s-2.42 9.88-7.05 9.88m32.6 6.9c5.45 0 8.28-3.04 9.58-5.76h.4v5.23h9.22V13.9h-9.33v16.36h-.29c-1.25-2.65-3.96-5.9-9.6-5.9-7.4 0-13.66 5.56-13.66 16.78 0 10.92 6 16.8 13.68 16.8m2.97-7.2c-4.6 0-7.1-3.96-7.1-9.65 0-5.65 2.46-9.54 7.1-9.54 4.55 0 7.1 3.72 7.1 9.54s-2.6 9.65-7.1 9.65m36.83 7.3c8.34 0 13.97-3.93 15.28-9.98l-8.65-.55c-.94 2.48-3.36 3.78-6.48 3.78-4.68 0-7.64-3-7.64-7.86v-.02h22.97v-2.49c0-11.1-6.94-16.57-15.86-16.57-9.93 0-16.36 6.82-16.36 16.89 0 10.35 6.35 16.8 16.74 16.8m-7.5-20.24a7.03 7.03 0 0 1 7.28-6.7c4.06 0 6.87 2.8 6.9 6.7z" style="fill:white;fill-opacity:1;"/></g><defs><clipPath id="hashnode__a"><rect width="350" height="58.066" fill="white" style="fill:white;fill-opacity:1;"/></clipPath></defs></svg>