<svg xmlns="http://www.w3.org/2000/svg" width="279" height="69" fill="none" viewBox="0 0 279 69"><g clip-path="url(#hydrow__a)"><path fill="black" d="M1.1 28.06c0 25.98.01 26.97.38 26.97.22 0 2.76-.35 5.64-.77 2.86-.41 5.33-.76 5.48-.76.2 0 .28-2.51.33-10.77L12.99 32l.5-1.03a7 7 0 0 1 3.06-2.95 8.7 8.7 0 0 1 4.32-.08 5.4 5.4 0 0 1 3.17 2.9l.52 1.16.07 10.02.07 10 .7-.1c.39-.07 3.05-.36 5.91-.62l5.18-.52-.07-11.03c-.09-10.5-.1-11.11-.57-12.73-1.37-4.96-4.7-8.32-9.34-9.48a23 23 0 0 0-8.65.11c-1.83.5-3.73 1.38-4.47 2.08l-.5.43V1.1H1.08zM110.27 10.72v9.63l-.68-.59a12 12 0 0 0-4.52-2.1 26 26 0 0 0-8.78-.08c-6.59 1.53-11.44 6.4-13.32 13.32a28 28 0 0 0-.34 9.78 21 21 0 0 0 2.55 6.92l.85 1.31h2.67c6.59 0 21.48.94 30.17 1.88 1.66.17 3.04.3 3.06.26 0-.04 0-11.29-.05-25.02l-.04-24.94h-11.58zm-5.35 17.38c3.89 1.23 6.1 5.44 5.37 10.27a8.3 8.3 0 0 1-2.51 5.2 7 7 0 0 1-5.48 2.15c-2.2 0-3.8-.59-5.33-1.96-3.54-3.19-3.78-10.11-.48-13.67 2.01-2.2 5.29-2.97 8.43-1.99M174.14 17.4c-4.22.9-8.32 3.4-10.96 6.7a22 22 0 0 0-3.8 8.06 25 25 0 0 0 0 9 18.8 18.8 0 0 0 10.15 13.25l1.7.86 7.6.02h7.58l1.6-.79c5.47-2.7 9.1-7.44 10.34-13.51.46-2.19.46-6.45 0-8.63a19.2 19.2 0 0 0-14.98-14.98 32 32 0 0 0-9.23.02m6.88 10.57c2.16.48 4.36 2.47 5.28 4.74.44 1.07.5 1.62.48 4.08 0 2.47-.07 2.97-.48 3.91-1.22 2.67-2.97 4.2-5.5 4.85-4.4 1.11-8.76-1.66-9.8-6.27a16 16 0 0 1 0-5.2 8.1 8.1 0 0 1 6.6-6.33 8 8 0 0 1 3.41.22M148.98 18.01a11.5 11.5 0 0 0-5.41 3.02l-.98 1.07v-3.98h-11.36l.04 17.08.07 17.1 3.93.48c2.16.26 4.78.54 5.85.63l1.9.15v-8.2c0-5.16.09-8.65.24-9.38.64-2.99 2.51-5.37 4.96-6.28 1.37-.53 3.69-.66 5.78-.38l1.25.18v-5.68c0-4.12-.07-5.72-.26-5.83-.5-.3-4.63-.3-6 .02M269.52 18.15a3.47 3.47 0 0 0-.46 5.91c1 .7 3.27.81 4.28.2a3.4 3.4 0 0 0 1.57-2.97q.01-2.19-1.75-3.1a3.9 3.9 0 0 0-3.65-.04m2.77.74c.92.48 1.3 1.16 1.3 2.29 0 .87-.3 1.8-.47 1.53-.29-.42-.55-1.55-.37-1.66.28-.18.24-1.05-.07-1.35-.15-.16-.85-.27-1.64-.27h-1.4l.07 1.8c.07 1.78.07 1.8.68 1.87.55.07.59.02.59-.7 0-.96.54-.87.74.11.09.48.24.64.61.64.48.02.48.02.09.32-.98.75-2.75.03-3.32-1.33-.46-1.1-.04-2.4.98-3.08.88-.59 1.34-.63 2.2-.17M39.09 18.23c0 .07 3.49 7.3 7.77 16.1L54.6 50.3l-3.86 8.82c-3.02 6.86-3.8 8.87-3.56 9 1.48.94 11.07 1.04 11.9.15.17-.2 21.64-48.2 22.3-49.9.08-.21-1.19-.26-6.19-.21l-6.26.06-3.96 9.57c-2.53 6.11-4.01 9.45-4.12 9.28s-2.08-4.46-4.41-9.57l-4.22-9.28-6.57-.06c-3.63-.02-6.57 0-6.57.06M200.34 18.39c.09.24 8.08 25.74 10.4 33.12.45 1.48.87 2.73.89 2.75.13.11 12.86-.92 12.97-1.05.02-.02 1.6-4.8 3.52-10.63l3.47-10.6 3.3 9.83 3.27 9.83 1.24-.04c1.1-.05 13.26-1.57 13.41-1.7.02-.03 2.18-6.97 4.83-15.42 2.62-8.45 4.82-15.6 4.9-15.88l.16-.48-5.8.05-5.84.06-2.97 10.55c-1.63 5.79-3.03 10.41-3.1 10.26s-1.66-4.93-3.51-10.59l-3.36-10.33H225.6l-3.42 10.31c-1.9 5.68-3.5 10.4-3.59 10.48s-1.46-4.52-3.07-10.26l-2.95-10.42-6.16-.06c-4.9-.05-6.16 0-6.07.22" style="fill:black;fill-opacity:1;"/></g><defs><clipPath id="hydrow__a"><rect width="278.402" height="69" fill="white" style="fill:white;fill-opacity:1;"/></clipPath></defs></svg>