<svg xmlns="http://www.w3.org/2000/svg" width="355" height="38" fill="none" viewBox="0 0 355 38"><path fill="black" d="M78.57 0a18.95 18.95 0 0 1 18.98 19c0 10.52-8.47 19-18.98 19A18.95 18.95 0 0 1 59.6 19c0-10.52 8.47-19 18.98-19m193.28 0a18.95 18.95 0 0 1 18.98 19c0 10.52-8.47 19-18.98 19a18.95 18.95 0 0 1-18.98-19c0-10.52 8.47-19 18.98-19m69.1 26.15v11.29h-9.7v-4.95c0-1.69-.92-2.6-2.6-2.6h-8.47c-1.68 0-2.6.91-2.6 2.6v4.95h-9.7V26.15L317.95.62h12.96zm-218.06-7.3c.72 1.53 2.24.87 2.25-.25V.62h9.33v36.77h-11.73l-10.3-20.43c-.62-1.17-2.05-.51-2.05.51V37.4H101V.62h13.06zm52.9 18.54h-10.2l-1.68-5.82q-.4-1.32-1.8-1.33h-10.96q-1.4.01-1.78 1.33l-1.69 5.82h-10.56L148.24.62h16.43zM196.15.62c7.34 0 12.95 5.41 12.95 12.76 0 5.93-3.72 10.63-9.23 12.21l10.51 11.8h-12.04l-8.01-8.94c-.61-.66-1.74-.4-1.79.72v8.22h-10.1V.62zm35 0c11.13 0 19.3 7.76 19.3 18.38 0 10.63-8.17 18.39-19.3 18.4h-17.49V.61zm123.6 36.77h-10.2V.62h10.2zM10.15 23.5c0 3.33 1.78 5.11 5.1 5.11h11.48v8.79H.25V.62h9.9zm293.74 13.9h-11.22V26.15h11.22zM57.39 9.4H42.43c-1.18 0-1.84.67-1.84 1.84v1.79c0 1.17.66 1.83 1.84 1.83h13.42v8.23H42.44c-1.18 0-1.84.66-1.84 1.84v1.83c0 1.18.66 1.84 1.84 1.84h14.94v8.79H30.4V.62h26.98zm173.97.2c-5.3 0-9.13 3.94-9.13 9.35s3.88 9.04 9.13 9.04 9.24-3.83 9.24-9.04c0-5.41-3.93-9.34-9.24-9.34m-159.42.77c-1.17 0-1.63.61-1.63 1.99v13.28c0 1.38.46 2 1.63 2h13.27c1.17 0 1.63-.62 1.63-2V12.36c0-1.38-.46-2-1.63-2zm193.28 0c-1.17 0-1.63.61-1.63 1.99v13.28c0 1.38.46 2 1.63 2h13.26c1.18 0 1.64-.62 1.64-2V12.36c0-1.38-.46-2-1.63-2zm-107.85.62c-.35-1.13-1.47-1.13-1.83 0l-2.7 9.24c-.36 1.28.2 2 1.42 2h4.39c1.22 0 1.79-.73 1.43-2zM325.7 12.4c-.5-1.27-2.04-1.27-2.55 0l-3 7.61c-.41 1.08.15 2.15 1.27 2.15h5.97c1.12 0 1.68-1.07 1.27-2.15zm-131.9-4.5a5.63 5.63 0 0 0-5.7 5.47 5.7 5.7 0 0 0 5.7 5.57c3.43 0 5.67-2.5 5.67-5.57a5.4 5.4 0 0 0-5.66-5.46" style="fill:black;fill-opacity:1;"/></svg>