<svg xmlns="http://www.w3.org/2000/svg" width="200" height="61" fill="none" viewBox="0 0 200 61"><g clip-path="url(#neo__a)"><path fill="white" d="M166.62 1.28c-25.98 0-33.38 17.78-33.38 29.82s7.4 29.83 33.38 29.83S200 43.13 200 31.1s-7.4-29.82-33.38-29.82m0 55.4c-9.6 0-9.99-9.66-9.99-25.58 0-15.9.39-25.58 9.99-25.58s9.98 9.67 9.98 25.58c0 15.92-.38 25.59-9.98 25.59m-36.27-11.4c-13.34 7.93-27.68 2.55-32.39-12.7 21.38-3.6 31.52-7.4 31.52-15.41 0-7.76-7.21-16.7-23.47-15.83-24.17 1.29-29.78 19.2-29.78 29.77 0 21.25 16.38 29.82 28.88 29.82 10.42 0 20.91-6.27 26.54-12.79zM106 5.55c3.77 0 7.53 3.23 7.53 9.23 0 7.55-3.08 11.73-16.43 13.98-.84-6.09-1.81-23.21 8.9-23.21M30.36 0A76 76 0 0 1 0 14.12c1.48.56 10.32 3.41 10.32 11.26v22.34c0 5.67-2.62 6.78-7.33 7.6v3.11h36.66V55.3c-4.7-.81-7.32-1.92-7.32-7.6V25.38c0-8.45 1.63-14.28 8.66-14.28 6.84 0 7.72 5.97 7.72 14.28v33.05h29.24V55.3c-4.7-.81-7.33-1.92-7.33-7.6V19.6c0-10.08-4.58-18.32-18.7-18.32-7.07 0-15.75 2.98-21.56 9.22z" style="fill:white;fill-opacity:1;"/></g><defs><clipPath id="neo__a"><rect width="200" height="60.927" fill="white" style="fill:white;fill-opacity:1;"/></clipPath></defs></svg>