<svg xmlns="http://www.w3.org/2000/svg" width="300" height="69" fill="none" viewBox="0 0 300 69"><g clip-path="url(#ruggable__a)"><path fill="black" d="M11.25 42.58c0 4.83 1.22 5.7 4.75 7.57v.57H.22v-.57c3.39-1.88 4.54-2.74 4.54-7.57V8.42C4.76 3.59 3.6 2.72.22.85V.27H23c10.44 0 18.87 3.54 18.87 13.34 0 8.94-7.49 12.54-14.91 12.61v.3c6.4.78 9.5 3.88 11.24 9.14l2.08 6.06c1.66 5.11 3.96 6.7 8.21 8.43v.58H36.96c-1.36-2.96-1.8-4.25-3.16-7.79l-2.3-6.84c-1.95-5.62-3.9-8.36-10.81-8.36h-9.44zM21.9 24.85c6.84 0 12.75-2.6 12.75-11.17 0-7.57-5.19-10.6-12.75-10.6H11.25v21.77zM56.86 37.1c0 4.98 2.02 9.68 7.74 9.68 5.71 0 10.2-4.84 10.2-13.37V22.06c0-4.04-2.1-5.41-4.99-7.22v-.43h11.51v28.03c0 4.91 1.01 5.56 4.2 7.59v.5H74.8v-9.1c-2.03 6.36-6.52 9.83-12.82 9.83-7.45 0-11.58-4.92-11.58-12.8v-16.4c0-4.04-2.17-5.41-4.99-7.22v-.43h11.44zM93.61 33.09c0-9.73 4.55-15.56 11.42-15.56 5.05 0 10.98 3.6 10.98 11.6v4.9c0 7.05-4.4 13.32-11.13 13.32-7.08 0-11.27-5.62-11.27-14.26m-7.08 0c0 11.67 6.94 18.3 16.11 18.3a13.8 13.8 0 0 0 13.37-9.66l.07 8.8c0 9.36-3.18 14.76-10.62 14.76-5.35 0-10.76-3.9-11.85-11.1l-7 1.88c2.16 9.58 10.04 12.46 17.19 12.46 11.63 0 18.64-6.34 18.71-18v-20.1c0-6.56 0-12.18 1.01-16.5h-.94a12.1 12.1 0 0 0-5.7 7.34c-1.74-3.81-6.65-7.34-13.3-7.34-9.25 0-17.05 7.49-17.05 19.16M134.6 33.09c0-9.73 4.55-15.56 11.41-15.56 5.06 0 10.98 3.6 10.98 11.6v4.9c0 7.05-4.4 13.32-11.12 13.32-7.08 0-11.27-5.62-11.27-14.26m-7.08 0c0 11.67 6.93 18.3 16.1 18.3A13.8 13.8 0 0 0 157 41.73l.07 8.8c0 9.36-3.17 14.76-10.62 14.76-5.34 0-10.76-3.9-11.84-11.1l-7.01 1.88c2.16 9.58 10.04 12.46 17.2 12.46 11.63 0 18.63-6.34 18.7-18v-20.1c0-6.56 0-12.18 1.02-16.5h-.94a12.1 12.1 0 0 0-5.71 7.34c-1.73-3.81-6.65-7.34-13.3-7.34-9.24 0-17.04 7.49-17.04 19.16M204.54 14.01h.94c-1.01 4.34-1.01 9.98-1.01 16.55v12.22c0 4.91 1.01 5.57 4.2 7.6v.5h-10.66l-.07-8.97a13.9 13.9 0 0 1-13.43 9.7c-9.21 0-16.18-6.66-16.18-18.37s7.83-19.23 17.12-19.23c6.68 0 11.61 3.54 13.36 7.37a12.2 12.2 0 0 1 5.73-7.37m-6.6 15.25c0-8.02-5.95-11.63-11.03-11.63-6.9 0-11.47 5.85-11.47 15.61 0 8.67 4.21 14.31 11.32 14.31 6.75 0 11.18-6.28 11.18-13.37zM212.87 51.47H212c.94-4.33.94-9.95.94-16.37V8.06c0-4.04-2.09-5.4-5.03-7.14V.27h11.5v23.36a13.66 13.66 0 0 1 13.3-9.66c9.06 0 16.03 6.64 16.03 18.17 0 11.83-7.76 19.33-17.04 19.33-6.6 0-11.35-3.53-13.22-7.43a11.7 11.7 0 0 1-5.61 7.43m6.54-15.14c0 7.78 5.89 11.46 10.85 11.46 6.83 0 11.43-5.77 11.43-15.65 0-8.5-4.24-14.13-11.21-14.13-6.61 0-11.07 6.34-11.07 13.41zM260.97 42.87c0 4.75 1 5.4 4.12 7.35v.5h-14.55v-.5c3.11-1.94 4.13-2.6 4.13-7.35V7.77c0-3.96-2.17-5.26-4.92-7v-.5h11.22zM300 32.02h-26.18c0 9.54 4.6 15.47 12.44 15.47 5.6 0 9.64-2.75 11.87-8.46l1.5.51c-1.64 7.59-7.04 11.93-15.31 11.93-9.64 0-17.48-6.65-17.48-18.36s7.7-19.23 17.2-19.23c10.13 0 15.96 6.72 15.96 18.14m-6.98-2.82c-.14-6.28-2.01-12.36-9.06-12.36-5.83 0-9.35 4.99-10 12.36z" style="fill:black;fill-opacity:1;"/></g><defs><clipPath id="ruggable__a"><rect width="300" height="68.644" fill="white" style="fill:white;fill-opacity:1;"/></clipPath></defs></svg>