<svg xmlns="http://www.w3.org/2000/svg" width="300" height="63" fill="none" viewBox="0 0 300 63"><g clip-path="url(#runway__a)"><path fill="black" d="M0 1.05h11.4l1.07 5.89C14.7 2.28 19.5 0 24.57 0c2.49 0 4.99.61 6.68 1.32l-2.68 13.6a13 13 0 0 0-6.68-1.75c-4.62 0-8.37 3.08-8.37 9.92v21.86H0zm35.94 27.56V.78h13.72v25.28c0 5.1 2.98 7.82 7.31 7.82 4.42 0 8.21-3.34 8.21-10.71V.77H78.9v43.9H67.44l-1.53-5.78c-2.17 3.5-7.58 6.84-14.26 6.84-8.95 0-15.71-5.63-15.71-17.12M85.95 1.05h11.32l1.52 5.8c2.14-3.51 7.4-6.85 14-6.85 8.74 0 15.33 5.54 15.33 17.03v27.92h-13.55v-25.1c0-5.18-2.69-8-7.14-8-4.1 0-7.94 3.34-7.94 10.89v22.21H85.93V1.05zm45.3-.27h13.56l8 29.95 7.14-19.7L156.43.77h13.47l8.72 29.96L186.36.77H200l-14.44 44.18h-13.91l-5.98-17.58-6.16 17.58h-13.83zm69.53 22.08C200.78 7.76 211.76 0 221.87 0c6.2 0 10.63 2.44 12.84 4.97l1.24-3.92h12.49v43.63h-11.87l-1.86-4.26c-1.86 2.17-5.84 5.31-13.47 5.31-10.89 0-20.46-8.9-20.46-22.86m34.47 0c0-7.06-4.6-11.42-10.46-11.42-5.93 0-10.46 4.45-10.46 11.42 0 6.98 4.53 11.44 10.46 11.44 5.85 0 10.46-4.37 10.46-11.44m27.37 39.92 7.51-20.1L252.34.78h14.58l9.92 27.37L285.78.77H300l-23.51 62.01z" style="fill:black;fill-opacity:1;"/></g><defs><clipPath id="runway__a"><rect width="300" height="62.78" fill="white" style="fill:white;fill-opacity:1;"/></clipPath></defs></svg>