<svg xmlns="http://www.w3.org/2000/svg" width="260" height="51" fill="none" viewBox="0 0 260 51"><path fill="black" fill-rule="evenodd" d="M140.54 29.13 110.52.93v47.43h8.94V22.08l30.02 28.2V2.86h-8.94zM70.94.3c-14.06 0-24.91 10.9-24.91 25 0 13.46 11.5 25 24.9 25 14.05 0 24.9-10.9 24.9-25s-10.85-25-24.9-25m0 41.02A15.84 15.84 0 0 1 54.96 25.3c0-8.98 7.02-16.03 15.96-16.03S86.9 16.31 86.9 25.29 79.87 41.3 70.93 41.3M30.7 25.3c-2.55-1.93-5.74-3.21-10.21-4.5-8.94-2.56-8.94-5.12-8.94-6.4 0-2.57 3.19-5.13 7.66-5.13 3.83 0 7.02 1.92 8.3 2.56l.64.64 7.02-5.12-.63-.64S28.79.29 19.2.29c-4.47 0-8.94 1.28-12.13 3.84A13.4 13.4 0 0 0 1.97 14.4c0 3.84 1.91 7.69 5.1 10.25 2.56 1.93 5.75 3.2 10.22 4.5 8.94 2.56 8.94 5.12 8.94 6.4 0 2.57-3.19 5.13-7.66 5.13-3.83 0-7.02-1.92-8.3-2.56l-.64-.65-7.02 5.13.64.64s5.74 6.41 15.32 6.41c4.47 0 8.94-1.28 12.13-3.84a13.4 13.4 0 0 0 5.11-10.26c0-3.84-1.91-7.05-5.1-10.25m158.37-25c-14.05 0-24.9 10.9-24.9 25s11.49 25 24.9 25c14.05 0 24.9-10.9 24.9-25s-11.5-25-24.9-25m0 41.02A15.84 15.84 0 0 1 173.1 25.3c0-8.98 7.03-16.03 15.97-16.03s15.96 7.05 15.96 16.03-7.66 16.02-15.96 16.02m40.23-16.67c2.55 1.93 5.74 3.2 10.21 4.5 8.94 2.56 8.94 5.12 8.94 6.4 0 2.57-3.19 5.13-7.66 5.13-3.83 0-7.02-1.92-8.3-2.56h-.64l-7.02 5.12.63.64s5.75 6.42 15.33 6.42c4.47 0 8.94-1.29 12.13-3.85a13.4 13.4 0 0 0 5.11-10.26c0-3.84-1.91-7.69-5.1-10.25-2.56-1.93-5.75-3.2-10.22-4.5-8.94-2.56-8.94-5.12-8.94-6.4 0-2.57 3.19-5.13 7.66-5.13 3.83 0 7.02 1.92 8.3 2.56l.64.65 7.02-5.13-.64-.64S251.01.93 241.43.93c-4.47 0-8.94 1.28-12.13 3.84a13.4 13.4 0 0 0-5.11 10.26c-.64 3.84 1.28 7.05 5.1 9.61" clip-rule="evenodd" style="fill:black;fill-opacity:1;"/></svg>