<svg xmlns="http://www.w3.org/2000/svg" width="200" height="84" fill="none" viewBox="0 0 200 84"><path fill="black" fill-rule="evenodd" d="M200 43c0-14.22-6.89-25.44-20.06-25.44-13.22 0-21.22 11.22-21.22 25.33 0 16.72 9.45 25.17 23 25.17 6.61 0 11.61-1.5 15.4-3.61V53.33a29.5 29.5 0 0 1-13.62 3.06c-5.39 0-10.17-1.89-10.78-8.44h27.17c0-.73.11-3.62.11-4.95m-27.44-5.28c0-6.27 3.83-8.89 7.33-8.89 3.39 0 7 2.62 7 8.9zM137.28 17.56a15.7 15.7 0 0 0-10.89 4.33l-.72-3.44h-12.23v64.77l13.9-2.94.05-15.72c2 1.44 4.94 3.5 9.83 3.5 9.95 0 19-8 19-25.61-.05-16.12-9.22-24.9-18.94-24.9m-3.34 38.27c-3.27 0-5.22-1.16-6.55-2.6l-.06-20.62c1.45-1.6 3.45-2.72 6.61-2.72 5.06 0 8.56 5.67 8.56 12.94 0 7.45-3.44 13-8.56 13M94.33 14.28l13.95-3V0L94.33 2.94z" clip-rule="evenodd" style="fill:black;fill-opacity:1;"/><path fill="black" d="M108.28 18.5H94.33v48.61h13.95z" style="fill:black;fill-opacity:1;"/><path fill="black" fill-rule="evenodd" d="m79.39 22.61-.89-4.11h-12v48.61h13.89V34.17c3.28-4.28 8.83-3.5 10.55-2.9V18.5c-1.77-.67-8.27-1.89-11.55 4.11M51.61 6.45 38.06 9.33 38 53.83c0 8.23 6.17 14.28 14.39 14.28 4.55 0 7.89-.83 9.72-1.83V55c-1.78.72-10.55 3.28-10.55-4.94V30.33H62.1V18.5H51.56zM14.06 32.61c0-2.16 1.77-3 4.72-3 4.22 0 9.55 1.28 13.78 3.56V20.1a37 37 0 0 0-13.78-2.55C7.5 17.56 0 23.45 0 33.28c0 15.33 21.11 12.89 21.11 19.5 0 2.55-2.22 3.39-5.33 3.39-4.61 0-10.5-1.9-15.17-4.45v13.23a38.5 38.5 0 0 0 15.17 3.16c11.55 0 19.5-5.72 19.5-15.66-.06-16.56-21.22-13.62-21.22-19.84" clip-rule="evenodd" style="fill:black;fill-opacity:1;"/></svg>