<svg xmlns="http://www.w3.org/2000/svg" width="320" height="67" fill="none" viewBox="0 0 320 67"><g clip-path="url(#super__a)"><path fill="white" d="M32.54.23C56.73.23 64.8 8.5 64.8 33.24c0 24.76-8.06 33-32.25 33S.3 58 .3 33.25s8.06-33 32.24-33m2.05 17.1c.18-1-1.12-1.54-1.67-.68L20.29 36.41c-.4.62.04 1.45.78 1.45h11.57l-2.15 11.98c-.18 1.01 1.13 1.55 1.68.69l12.62-19.76c.4-.63-.04-1.46-.77-1.46H32.45zM103.59 15.34c-17.86 0-22.33 3.94-23.7 11.75-1.3 7.8 1.99 11.03 17.24 11.03 8.93 0 11.47 0 11.06 2.25-.41 2.32-2.95 2.32-9.34 2.32-6.4 0-8.93 0-8.45-2.6H77.07c-1.58 9.14 2.4 11.74 20.27 11.74 17.86 0 22.73-2.6 24.31-11.74 1.38-7.8-2.54-11.1-17.86-11.1-8.93 0-11.47-.08-11.06-2.26.42-2.32 2.96-2.32 9.35-2.32 5.08 0 8.93 0 8.45 2.6h12.7c1.38-8.01-1.78-11.67-19.64-11.67M162.46 16.6l-2.94 16.95c-1.12 6.54-6.16 9.14-11.34 9.14s-9.3-2.6-8.12-9.14L143 16.61h-14.27l-3.01 16.94c-2.31 13.01 4.55 18.28 16.24 18.28 9.1 0 14.97-3.93 14.97-3.93l.84 2.6h12.95l5.95-33.9zM208.85 15.34c-9.1 0-13.65 3.94-13.65 3.94l.5-2.6H181.4l-8.67 49.57H187l3.22-18.28s3.22 3.93 12.32 3.93c11.69 0 21.41-3.93 23.93-18.28 2.45-14.4-5.94-18.28-17.63-18.28m3.29 18.21c-1.12 6.54-6.16 9.14-11.34 9.14s-9.3-2.6-8.12-9.14c1.12-6.54 6.16-9.14 11.34-9.14s9.24 2.6 8.12 9.14M256.2 15.34c-15.54 0-24.84 4.93-27.15 17.93s5.24 18.56 20.78 18.56c10.92 0 16.87-1.97 22.47-7.03l-8.33-5.41c-1.82 1.12-3.78 3.3-12.53 3.3-5.88 0-8.54-2.25-8.4-6.82h33.45c.21-.84.42-1.68.56-2.6 2.24-13.08-5.31-17.93-20.85-17.93m-11.76 14c1.68-3.66 4.27-4.93 10.15-4.93 5.8 0 8.05 1.2 8.4 4.92zM297.17 19.21l.49-2.6h-14.28l-5.95 33.89h14.28l2.52-14.35c1.6-9.14 8.33-10.4 13.5-10.4 5.12 0 6.8.56 10.15 1.34l1.82-10.41a41 41 0 0 0-10.14-1.34c-9.1 0-12.4 3.87-12.4 3.87" style="fill:white;fill-opacity:1;"/></g><defs><clipPath id="super__a"><rect width="320" height="66.508" fill="white" style="fill:white;fill-opacity:1;"/></clipPath></defs></svg>