<svg xmlns="http://www.w3.org/2000/svg" width="280" height="57" fill="none" viewBox="0 0 280 57"><path fill="black" fill-rule="evenodd" d="M43.05 0c3.53 0 2.57 1 1.78 1.83l-.32.34c-3.95 4.57-5.76 9.91-7.39 14.7-1.4 4.11-2.65 7.82-5 10.24-3.24 3.32-9.22 4.18-13.05 4.37-1.03.06-1.1.83-.08 1.04 4.83.95 9.03-.12 11.46-.9v.01q1.02-.33.65.67a14.8 14.8 0 0 1-10.23 9.56c-1.5.4-2.97.57-4.35.72-1.21.14-2.35.27-3.38.54-1.3.35-2.34 1-3.4 2.4-.82 1.1-1.7 2.63-2.6 4.2C5.16 53.23 3 56.99.88 57c-.61 0-.92-.43-.86-.94.08-.63.51-1.51 1.04-2.58l.58-1.18c2.28-4.86 4.34-9.44 6.26-13.72C18.75 14.39 25.22 0 43.05 0m-5.99 46.3a5.34 5.34 0 1 1 0 10.69 5.34 5.34 0 0 1 0-10.69m67.3-6.74h.28l5.48-19.29h7.71l-10.2 29.1a12 12 0 0 1-2 3.69 8 8 0 0 1-3.16 2.44q-1.92.87-4.62.87-1.38 0-2.6-.22a10 10 0 0 1-1.98-.53l1.64-5.43q1.28.39 2.3.42 1.05.04 1.8-.47.77-.52 1.25-1.75l.43-1.1-9.42-27.02h7.66zm162.17 0h.27l5.49-19.29h7.7l-10.2 29.1a12 12 0 0 1-2 3.69 8 8 0 0 1-3.16 2.44q-1.9.87-4.61.87-1.39 0-2.6-.22a10 10 0 0 1-1.98-.53l1.64-5.43q1.28.39 2.3.42 1.05.04 1.8-.47.77-.52 1.25-1.75l.43-1.1-9.42-27.02h7.66zm-130-19.63q2.88 0 5.3 1.5 2.43 1.5 3.88 4.5t1.45 7.5q0 4.4-1.41 7.42-1.41 3-3.83 4.57a10 10 0 0 1-5.4 1.53 8.4 8.4 0 0 1-3.61-.7 7.5 7.5 0 0 1-2.41-1.76 9 9 0 0 1-1.44-2.17h-.22v14.05h-7.28v-36.1h7.18v4.41h.32q.48-1.05 1.39-2.15a7 7 0 0 1 2.39-1.85q1.49-.75 3.7-.75m27.16 0q2.6 0 4.84.84a10.7 10.7 0 0 1 6.56 6.65q.94 2.5.94 5.84v2h-17.88v.02q0 1.95.72 3.37a5.3 5.3 0 0 0 2.07 2.19q1.33.76 3.16.77 1.22 0 2.22-.35a4.46 4.46 0 0 0 2.82-2.7l6.74.45a9 9 0 0 1-2.1 4.24 10.6 10.6 0 0 1-4.07 2.8q-2.47 1-5.73 1-4.05 0-6.97-1.65a11.2 11.2 0 0 1-4.48-4.68 15.5 15.5 0 0 1-1.57-7.2q0-4.05 1.57-7.11a11.6 11.6 0 0 1 4.43-4.77 13 13 0 0 1 6.73-1.7m42.94 15.76a5.3 5.3 0 0 0 1.25 3.68q1.23 1.35 3.3 1.35 1.32 0 2.46-.6a4.7 4.7 0 0 0 1.85-1.81q.72-1.2.7-2.96V20.27h7.28v26.26h-7v-4.77h-.26a7.8 7.8 0 0 1-2.96 3.7 8.7 8.7 0 0 1-5.01 1.41q-2.63 0-4.63-1.2a8 8 0 0 1-3.13-3.4 12 12 0 0 1-1.13-5.28V20.27h7.28zM91.77 17.62H81.05v28.9h-7.32v-28.9H63.02v-6.1h28.75zm99.25-7.74q1.68 0 3.06.26 1.4.25 2.09.46l-1.3 5.47a9 9 0 0 0-2.33-.38q-1.6 0-2.24.76a3 3 0 0 0-.63 2.06v1.76h5.23v5.47h-5.23v20.79h-7.26V25.74h-3.71v-5.47h3.7v-1.9q0-2.84 1.12-4.73a7 7 0 0 1 3.07-2.82q1.95-.93 4.43-.94m45.55 36.65h-7.28v-35h7.28zm13.12 0h-7.28v-35h7.28zM134.2 25.73a4.8 4.8 0 0 0-3.01.94 6 6 0 0 0-1.86 2.66q-.66 1.72-.65 4.07 0 2.34.65 4.09a6 6 0 0 0 1.88 2.71q1.22.96 2.99.96a4.7 4.7 0 0 0 3-.97 6 6 0 0 0 1.87-2.74q.65-1.76.65-4.05 0-2.28-.63-4a6 6 0 0 0-1.87-2.7 4.7 4.7 0 0 0-3.02-.97m29.6-.36a5.6 5.6 0 0 0-2.94.77q-1.26.75-1.98 2.03a6 6 0 0 0-.73 2.58h11.02q0-1.58-.69-2.79a5 5 0 0 0-1.9-1.9q-1.19-.7-2.78-.7" clip-rule="evenodd" style="fill:black;fill-opacity:1;"/></svg>