<svg xmlns="http://www.w3.org/2000/svg" width="260" height="71" fill="none" viewBox="0 0 260 71"><path fill="black" fill-rule="evenodd" d="M156.07 15.75q7.56 0 11.4 5.76 3.81 5.76 3.82 15.95 0 10.56-3.96 16.45-3.96 5.9-11.52 5.9c-2.48.06-4.94-.54-7.12-1.73a12 12 0 0 1-4.8-5.36 23 23 0 0 1-1.53-4.27h-.44v22.1h-12.05V16.9h10.3l1.57 11.25h.38q1.3-5.7 4.06-8.55 3.74-3.86 9.9-3.86m55.84 0q6.42 0 10.65 2.5a16 16 0 0 1 6.31 6.9 23 23 0 0 1 2.11 10.12v2.6q0 1.19-.17 2.94h-28.43q.49 3.77 2.22 5.8 2.41 2.82 7.33 2.82 4.13 0 5.9-1.76a9.6 9.6 0 0 0 2.44-4.23l10.38 2.91a21 21 0 0 1-3.3 6.81 15.3 15.3 0 0 1-6.07 4.8q-3.83 1.76-9.54 1.76-6.6 0-11.39-2.78a18.7 18.7 0 0 1-7.38-7.78 25 25 0 0 1-2.6-11.78q0-10.12 5.72-15.88 5.7-5.75 15.82-5.75m-104.64.17q9.5 0 13.7 4.4 4.22 4.38 4.22 12.4v25.82H115l-1.54-10.2h-.41a17 17 0 0 1-3.01 6.42q-3.64 4.66-10.42 4.66-5.46 0-9.06-2.99t-3.6-9.16q0-6 3.6-9.67t11.87-3.67h10.82v-1.1c0-2.24-.52-3.93-1.54-5.15q-1.55-1.83-4.97-1.83a7.5 7.5 0 0 0-4.84 1.5q-1.83 1.5-2.44 5.1L88.2 30.85c.3-2.71 1.16-5.33 2.55-7.69a13.7 13.7 0 0 1 6.06-5.32q4.05-1.93 10.46-1.93M41.68 48.36v10.21H0v-10.2zm145.17 10.2H174.8V16.9h12.05zM84.14 27.09 61.02 48.25l.04.11H84.5v10.2H46.35v-10.2l22.89-21.18-.04-.1H47.05v-10.2h37.09zm162.22 1.06h.36q1.1-5.05 3.2-7.65 2.95-3.6 8.06-3.6H260v11.95h-4.57q-5.1 0-7 2.15-1.88 2.16-1.88 6.2v21.37H234.5V16.9h10.29zM102.62 41.85a4 4 0 0 0-2.9 1.06 3.8 3.8 0 0 0-1.06 2.82 3.7 3.7 0 0 0 1.27 2.9q1.27 1.14 4.54 1.14 3.94 0 6.37-2.02a6.5 6.5 0 0 0 2.42-5.2v-.7zm48.08-15.3q-4.12-.02-6.46 2.73t-2.33 7.93v.8q0 5.1 2.33 8.04A7.8 7.8 0 0 0 150.7 49q4.5 0 6.6-3.05 2.12-3.05 2.1-8.4 0-5.2-2.06-8.1t-6.64-2.9m60.86-.87q-4.65 0-7.03 2.8a10 10 0 0 0-1.94 4.41h17.28q-.98-7.2-8.3-7.2M180.96.08V.1a6.5 6.5 0 0 1 6.77 6.78 6.7 6.7 0 0 1-1.89 4.92 6.5 6.5 0 0 1-4.88 1.93 6.63 6.63 0 0 1-6.87-6.85 6.5 6.5 0 0 1 6.87-6.78" clip-rule="evenodd" style="fill:black;fill-opacity:1;"/></svg>