<svg xmlns="http://www.w3.org/2000/svg" viewBox="0 0 64 64" role="img" aria-label="Platform dinosaur favicon">
  <defs>
    <linearGradient id="bg" x1="8" y1="8" x2="56" y2="56" gradientUnits="userSpaceOnUse">
      <stop offset="0" stop-color="#f4ecff"/>
      <stop offset="0.48" stop-color="#c39dff"/>
      <stop offset="1" stop-color="#7d5cff"/>
    </linearGradient>
    <linearGradient id="ink" x1="18" y1="14" x2="47" y2="48" gradientUnits="userSpaceOnUse">
      <stop offset="0" stop-color="#251038"/>
      <stop offset="1" stop-color="#14081f"/>
    </linearGradient>
  </defs>

  <rect x="4" y="4" width="56" height="56" rx="16" fill="url(#bg)"/>

  <path
    fill="url(#ink)"
    d="M20 49V34.5c0-9.7 7.8-17.5 17.5-17.5h3.3l5.1-4.2c1.3-1.1 3.1-.2 3.1 1.5v8.8c1.9 2.7 3 6 3 9.6 0 9.1-7.4 16.5-16.5 16.5H20Z"
  />

  <path
    fill="url(#ink)"
    d="M34.6 41.6h8.8c1.6 0 2.9 1.1 3.2 2.7L47 46H31.5Z"
  />

  <path
    d="M25.2 22.5l2.7-4.2 3.3 3.1 3.4-4.3 3.6 3.5"
    stroke="url(#ink)"
    stroke-linecap="round"
    stroke-linejoin="round"
    stroke-width="2.4"
    fill="none"
  />

  <circle cx="40.6" cy="28.8" r="3" fill="#f7f1ff"/>
  <circle cx="40.6" cy="28.8" r="1" fill="#1b0c29"/>

  <path
    d="M31.6 35.2h7.8c1 0 1.8.8 1.8 1.8s-.8 1.8-1.8 1.8h-7.8z"
    fill="#f7f1ff"
  />
</svg>
