<svg width="24" height="21" viewBox="0 0 24 21" fill="none" xmlns="http://www.w3.org/2000/svg">
<path d="M17.1602 11.6118C17.1602 9.56782 18.6022 8.06982 20.6602 8.06982C21.9762 8.06982 22.7742 8.62982 23.2502 9.27382L22.2842 10.1698C21.9062 9.63782 21.3882 9.37182 20.7302 9.37182C19.4982 9.37182 18.6862 10.2958 18.6862 11.6118C18.6862 12.9278 19.4982 13.8658 20.7302 13.8658C21.3882 13.8658 21.9062 13.5858 22.2842 13.0678L23.2502 13.9638C22.7742 14.6078 21.9762 15.1678 20.6602 15.1678C18.6022 15.1678 17.1602 13.6698 17.1602 11.6118Z" fill="white"/>
<path d="M12.3568 15.1678C10.2148 15.1678 8.88477 13.5578 8.88477 11.6118C8.88477 9.67982 10.2148 8.06982 12.3568 8.06982C14.5268 8.06982 15.8428 9.67982 15.8428 11.6118C15.8428 13.5578 14.5268 15.1678 12.3568 15.1678ZM12.3568 13.8658C13.6168 13.8658 14.3168 12.8158 14.3168 11.6118C14.3168 10.4218 13.6168 9.37182 12.3568 9.37182C11.1108 9.37182 10.4108 10.4218 10.4108 11.6118C10.4108 12.8158 11.1108 13.8658 12.3568 13.8658Z" fill="white"/>
<path d="M7.15 14.9996H5.68V14.0756C5.162 14.7476 4.378 15.1676 3.51 15.1676C1.774 15.1676 0.5 13.8516 0.5 11.6256C0.5 9.44162 1.76 8.06962 3.51 8.06962C4.35 8.06962 5.134 8.46162 5.68 9.17562V5.66162H7.15V14.9996ZM5.68 12.9696V10.2816C5.344 9.77762 4.63 9.37162 3.93 9.37162C2.768 9.37162 2.026 10.3096 2.026 11.6256C2.026 12.9276 2.768 13.8656 3.93 13.8656C4.63 13.8656 5.344 13.4736 5.68 12.9696Z" fill="white"/>
</svg>
