<svg width="97" height="21" viewBox="0 0 97 21" fill="none" xmlns="http://www.w3.org/2000/svg">
<path d="M96.2645 14.9998H94.7945V10.7718C94.7945 9.72182 94.2625 9.37182 93.4365 9.37182C92.6805 9.37182 92.0365 9.81982 91.7005 10.2818V14.9998H90.2305V8.23782H91.7005V9.16182C92.1485 8.62982 93.0165 8.06982 94.0805 8.06982C95.5365 8.06982 96.2645 8.85382 96.2645 10.2398V14.9998Z" fill="white"/>
<path d="M85.0072 15.1678C82.8652 15.1678 81.5352 13.5578 81.5352 11.6118C81.5352 9.67982 82.8652 8.06982 85.0072 8.06982C87.1772 8.06982 88.4932 9.67982 88.4932 11.6118C88.4932 13.5578 87.1772 15.1678 85.0072 15.1678ZM85.0072 13.8658C86.2672 13.8658 86.9672 12.8158 86.9672 11.6118C86.9672 10.4218 86.2672 9.37182 85.0072 9.37182C83.7612 9.37182 83.0612 10.4218 83.0612 11.6118C83.0612 12.8158 83.7612 13.8658 85.0072 13.8658Z" fill="white"/>
<path d="M79.056 7.11785C78.566 7.11785 78.146 6.71185 78.146 6.20785C78.146 5.70385 78.566 5.29785 79.056 5.29785C79.56 5.29785 79.966 5.70385 79.966 6.20785C79.966 6.71185 79.56 7.11785 79.056 7.11785ZM79.798 14.9999H78.328V8.23785H79.798V14.9999Z" fill="white"/>
<path d="M75.6377 15.1676C74.5037 15.1676 73.9017 14.5516 73.9017 13.4316V9.52565H72.7817V8.23765H73.9017V6.38965H75.3717V8.23765H76.7437V9.52565H75.3717V13.0676C75.3717 13.5296 75.5957 13.8656 76.0157 13.8656C76.2957 13.8656 76.5617 13.7536 76.6737 13.6276L77.0237 14.7336C76.7577 14.9856 76.3237 15.1676 75.6377 15.1676Z" fill="white"/>
<path d="M71.4518 14.9998H69.9818V14.2718C69.4778 14.8458 68.6938 15.1678 67.7978 15.1678C66.6918 15.1678 65.4458 14.4258 65.4458 12.9278C65.4458 11.3738 66.6918 10.7298 67.7978 10.7298C68.7078 10.7298 69.4918 11.0238 69.9818 11.5978V10.5898C69.9818 9.80582 69.3378 9.32982 68.3998 9.32982C67.6438 9.32982 66.9858 9.60982 66.3978 10.1838L65.7958 9.16182C66.5798 8.41982 67.5598 8.06982 68.6378 8.06982C70.1358 8.06982 71.4518 8.69982 71.4518 10.5198V14.9998ZM69.9818 13.4598V12.4378C69.6458 11.9758 69.0158 11.7378 68.3718 11.7378C67.5458 11.7378 66.9298 12.2138 66.9298 12.9558C66.9298 13.6838 67.5458 14.1598 68.3718 14.1598C69.0158 14.1598 69.6458 13.9218 69.9818 13.4598Z" fill="white"/>
<path d="M63.1612 15.1676C62.0272 15.1676 61.4252 14.5516 61.4252 13.4316V9.52565H60.3052V8.23765H61.4252V6.38965H62.8952V8.23765H64.2672V9.52565H62.8952V13.0676C62.8952 13.5296 63.1192 13.8656 63.5392 13.8656C63.8192 13.8656 64.0852 13.7536 64.1972 13.6276L64.5472 14.7336C64.2812 14.9856 63.8472 15.1676 63.1612 15.1676Z" fill="white"/>
<path d="M58.9715 14.9998H57.5015V10.7718C57.5015 9.72182 56.9695 9.37182 56.1435 9.37182C55.3875 9.37182 54.7435 9.81982 54.4075 10.2818V14.9998H52.9375V8.23782H54.4075V9.16182C54.8555 8.62982 55.7235 8.06982 56.7875 8.06982C58.2435 8.06982 58.9715 8.85382 58.9715 10.2398V14.9998Z" fill="white"/>
<path d="M44.4746 11.6118C44.4746 9.65182 45.9026 8.06982 47.9046 8.06982C49.9346 8.06982 51.2366 9.62382 51.2366 11.7518V12.1018H46.0146C46.1266 13.1238 46.8966 13.9638 48.1706 13.9638C48.8286 13.9638 49.6126 13.6978 50.0886 13.2218L50.7606 14.1878C50.0886 14.8318 49.0946 15.1678 48.0166 15.1678C45.9866 15.1678 44.4746 13.7538 44.4746 11.6118ZM47.9046 9.27382C46.6446 9.27382 46.0706 10.2398 46.0006 11.0658H49.8086C49.7806 10.2678 49.2346 9.27382 47.9046 9.27382Z" fill="white"/>
<path d="M42.7404 14.9998H41.2704V10.5898C41.2704 9.86182 40.9484 9.37182 40.1644 9.37182C39.5064 9.37182 38.8904 9.83382 38.5964 10.2678V14.9998H37.1264V10.5898C37.1264 9.86182 36.8044 9.37182 36.0064 9.37182C35.3624 9.37182 34.7604 9.83382 34.4524 10.2818V14.9998H32.9824V8.23782H34.4524V9.16182C34.7324 8.74182 35.6284 8.06982 36.6504 8.06982C37.6584 8.06982 38.2744 8.57382 38.4984 9.31582C38.8904 8.69982 39.7864 8.06982 40.7944 8.06982C42.0404 8.06982 42.7404 8.74182 42.7404 10.1138V14.9998Z" fill="white"/>
<path d="M30.8231 14.9998H29.3531V14.1038C28.8631 14.6498 28.0231 15.1678 26.9591 15.1678C25.5031 15.1678 24.7891 14.4118 24.7891 13.0258V8.23779H26.2591V12.4938C26.2591 13.5438 26.7911 13.8658 27.6171 13.8658C28.3591 13.8658 29.0031 13.4458 29.3531 12.9838V8.23779H30.8231V14.9998Z" fill="white"/>
<path d="M17.1602 11.6118C17.1602 9.56782 18.6022 8.06982 20.6602 8.06982C21.9762 8.06982 22.7742 8.62982 23.2502 9.27382L22.2842 10.1698C21.9062 9.63782 21.3882 9.37182 20.7302 9.37182C19.4982 9.37182 18.6862 10.2958 18.6862 11.6118C18.6862 12.9278 19.4982 13.8658 20.7302 13.8658C21.3882 13.8658 21.9062 13.5858 22.2842 13.0678L23.2502 13.9638C22.7742 14.6078 21.9762 15.1678 20.6602 15.1678C18.6022 15.1678 17.1602 13.6698 17.1602 11.6118Z" fill="white"/>
<path d="M12.3568 15.1678C10.2148 15.1678 8.88477 13.5578 8.88477 11.6118C8.88477 9.67982 10.2148 8.06982 12.3568 8.06982C14.5268 8.06982 15.8428 9.67982 15.8428 11.6118C15.8428 13.5578 14.5268 15.1678 12.3568 15.1678ZM12.3568 13.8658C13.6168 13.8658 14.3168 12.8158 14.3168 11.6118C14.3168 10.4218 13.6168 9.37182 12.3568 9.37182C11.1108 9.37182 10.4108 10.4218 10.4108 11.6118C10.4108 12.8158 11.1108 13.8658 12.3568 13.8658Z" fill="white"/>
<path d="M7.15 14.9996H5.68V14.0756C5.162 14.7476 4.378 15.1676 3.51 15.1676C1.774 15.1676 0.5 13.8516 0.5 11.6256C0.5 9.44162 1.76 8.06962 3.51 8.06962C4.35 8.06962 5.134 8.46162 5.68 9.17562V5.66162H7.15V14.9996ZM5.68 12.9696V10.2816C5.344 9.77762 4.63 9.37162 3.93 9.37162C2.768 9.37162 2.026 10.3096 2.026 11.6256C2.026 12.9276 2.768 13.8656 3.93 13.8656C4.63 13.8656 5.344 13.4736 5.68 12.9696Z" fill="white"/>
</svg>
