<svg width="19" height="21" viewBox="0 0 19 21" fill="none" xmlns="http://www.w3.org/2000/svg">
<path d="M13.5024 10.0095C13.5024 11.9203 11.9587 13.4694 10.0544 13.4694C8.15009 13.4694 6.60635 11.9203 6.60635 10.0095C6.60635 8.09857 8.15009 6.54949 10.0544 6.54949C11.9587 6.54949 13.5024 8.09857 13.5024 10.0095Z" fill="white"/>
<path d="M14.4672 4.83052C15.1145 5.37555 16.083 5.29052 16.6262 4.64096C17.1694 3.99139 17.0846 3.01954 16.4373 2.47451C15.79 1.92948 14.8215 2.01449 14.2783 2.66405C13.7352 3.31362 13.8199 4.28547 14.4672 4.83052Z" fill="white"/>
<path d="M10.9598 17.2849C10.3125 16.7399 9.34398 16.8249 8.80081 17.4744C8.25766 18.124 8.34237 19.0959 8.98967 19.6409C9.63697 20.1859 10.6055 20.1009 11.1487 19.4514C11.6918 18.8018 11.6071 17.8299 10.9598 17.2849Z" fill="white"/>
<path d="M2.70643 10.9724C2.1624 11.623 1.1958 11.7079 0.54745 11.162C-0.100896 10.616 -0.185463 9.64609 0.358564 8.9955C0.90259 8.34492 1.8692 8.26006 2.51754 8.80597C3.16589 9.35187 3.25046 10.3218 2.70643 10.9724Z" fill="white"/>
<path fill-rule="evenodd" clip-rule="evenodd" d="M12.7981 2.73693C9.71209 1.53601 6.08072 2.40101 3.88686 5.11957C3.31494 5.82828 2.88675 6.60547 2.59771 7.41634L1.46397 7.00942C1.79807 6.07214 2.29267 5.17513 2.95112 4.3592C5.48373 1.22086 9.67394 0.225246 13.2334 1.61044L12.7981 2.73693ZM16.0515 15.0044C18.1411 12.4151 18.3206 8.89537 16.7666 6.16458L17.8122 5.56543C19.6041 8.71427 19.3996 12.7755 16.9873 15.7648C15.916 17.0923 14.5464 18.0375 13.0532 18.5803L12.6431 17.4443C13.936 16.9743 15.122 16.1563 16.0515 15.0044ZM2.56348 12.6059C3.023 13.9574 3.85502 15.1994 5.04382 16.1654C5.7414 16.7322 6.50555 17.1583 7.30286 17.4482L6.89271 18.5842C5.97112 18.2491 5.08918 17.7569 4.28607 17.1043C2.91593 15.991 1.9545 14.5566 1.4239 12.996L2.56348 12.6059Z" fill="white"/>
</svg>
